<?xml version="1.0" encoding="UTF-8" standalone="no"?>
<!-- Created with Inkscape (http://www.inkscape.org/) -->

<svg
   width="13.084323mm"
   height="15.487581mm"
   viewBox="0 0 130.84192 154.87426"
   version="1.1"
   id="svg1"
   xml:space="preserve"
   inkscape:version="1.3.2 (091e20e, 2023-11-25)"
   sodipodi:docname="logo_cyberstring.svg"
   xmlns:inkscape="http://www.inkscape.org/namespaces/inkscape"
   xmlns:sodipodi="http://sodipodi.sourceforge.net/DTD/sodipodi-0.dtd"
   xmlns="http://www.w3.org/2000/svg"
   xmlns:svg="http://www.w3.org/2000/svg"><sodipodi:namedview
     id="namedview1"
     pagecolor="#ffffff"
     bordercolor="#000000"
     borderopacity="0.25"
     inkscape:showpageshadow="2"
     inkscape:pageopacity="0.0"
     inkscape:pagecheckerboard="0"
     inkscape:deskcolor="#d1d1d1"
     inkscape:document-units="mm"
     showgrid="false"
     inkscape:zoom="0.76257015"
     inkscape:cx="79.992641"
     inkscape:cy="87.860769"
     inkscape:window-width="1696"
     inkscape:window-height="1027"
     inkscape:window-x="234"
     inkscape:window-y="25"
     inkscape:window-maximized="0"
     inkscape:current-layer="layer1" /><defs
     id="defs1"><filter
       inkscape:label="Edge Detect"
       inkscape:menu="Pixel Tools"
       inkscape:menu-tooltip="Reduce or remove antialiasing around shapes"
       style="color-interpolation-filters:sRGB"
       id="filter61"
       x="0"
       y="0"
       width="1"
       height="1"><feColorMatrix
         values="1 0 0 0 0 0 1 0 0 0 0 0 1 0 0 0 0 0 1000 -500 "
         id="feColorMatrix61"
         result="fbSourceGraphic" /><feColorMatrix
         result="fbSourceGraphicAlpha"
         in="fbSourceGraphic"
         values="0 0 0 -1 0 0 0 0 -1 0 0 0 0 -1 0 0 0 0 1 0"
         id="feColorMatrix70" /><feConvolveMatrix
         id="feConvolveMatrix70"
         in="fbSourceGraphic"
         kernelMatrix="0 1 0 1 -4 1 0 1 0"
         order="3 3"
         bias="0"
         divisor="0.01"
         targetX="1"
         targetY="1"
         preserveAlpha="true"
         result="convolve" /></filter></defs><g
     inkscape:label="Capa 1"
     inkscape:groupmode="layer"
     id="layer1"
     transform="translate(38.357874,6.3742744)"><g
       inkscape:label="Capa 1"
       id="layer1-8"
       transform="matrix(0.45593476,0,0,0.49999997,23.476969,19.229522)"><path
         style="fill:#00ff00;stroke-width:0.537086"
         d="m -37.416247,256.91467 c -0.37319,-1.86594 -2.066256,-2.23409 -2.596161,-0.56449 -0.201014,0.63334 -0.639559,0.92882 -1.110361,0.74817 -0.427977,-0.16423 -0.778134,-0.0311 -0.778134,0.29593 0,0.327 -0.208174,0.59455 -0.462606,0.59455 -0.254434,0 -0.347101,-0.6042 -0.20593,-1.34271 0.224491,-1.17435 0.0676,-1.34271 -1.251299,-1.34271 -1.315379,0 -1.39613,0.0857 -0.632257,0.67136 0.726022,0.5566 0.752936,0.78099 0.157449,1.3127 -0.570127,0.50906 -0.774595,0.42598 -0.991331,-0.4028 -0.383783,-1.46759 -1.97568,-1.33829 -2.022623,0.16428 -0.03582,1.14673 -0.05981,1.15358 -0.469873,0.13425 -0.23767,-0.59079 -0.304186,-1.29278 -0.14781,-1.55996 0.156377,-0.2672 0.04517,-0.338 -0.247129,-0.15735 -0.731091,0.45183 -4.496487,-0.75649 -4.142456,-1.32934 0.157017,-0.25406 0.493773,-0.33319 0.748347,-0.17584 0.254572,0.15732 0.61467,0.0404 0.800211,-0.2598 0.815144,-1.31892 -3.251089,-0.0643 -4.148767,1.28008 -0.218368,0.32705 -0.398259,-0.0407 -0.402812,-0.82338 -0.0086,-1.47479 -1.015863,-2.04952 -2.891936,-1.65 -0.85177,0.1814 -0.96272,0.57934 -0.73207,2.62568 0.14953,1.32654 0.0736,2.20958 -0.16863,1.96236 -0.24226,-0.24726 -0.5388,-1.41629 -0.65898,-2.59787 -0.18509,-1.8198 -0.2823,-1.96355 -0.63562,-0.9399 -0.48707,1.41113 -1.12369,1.54606 -1.77801,0.37684 -0.25596,-0.45736 -0.99304,-0.87132 -1.63794,-0.9199 -1.52959,-0.11523 -1.62233,-2.00808 -0.0984,-2.00808 0.59079,0 1.07417,-0.25138 1.07417,-0.55862 0,-0.32485 -0.97548,-0.49339 -2.33143,-0.4028 -2.01945,0.13494 -2.29874,0.29954 -2.08708,1.22997 0.2045,0.89898 0.0847,0.85519 -0.73482,-0.26855 -1.58899,-2.17892 -2.43874,-2.89364 -2.8174,-2.36972 -0.72078,0.99732 -1.68782,0.71263 -2.01561,-0.59335 -0.18573,-0.74004 -1.08016,-1.87418 -1.98761,-2.52034 -1.42614,-1.01553 -1.60015,-1.04516 -1.283,-0.21868 0.20181,0.52591 0.36693,1.04968 0.36693,1.16393 0,0.11427 0.42295,0.059 0.93989,-0.12295 0.74044,-0.26056 0.80577,-0.18556 0.30787,0.35348 -0.94919,1.02756 -3.22088,0.24511 -3.59301,-1.23756 -0.32943,-1.31257 -1.91669,-1.72802 -2.61456,-0.68432 -0.24682,0.36912 -0.39767,0.2549 -0.40282,-0.30501 -0.005,-0.49234 0.29389,-1.01169 0.66314,-1.15411 0.36924,-0.14243 -0.0537,-0.19479 -0.9399,-0.11634 -2.04841,0.18129 -2.95397,-0.16441 -2.95397,-1.12768 0,-1.24195 -2.66612,-1.99299 -3.7127,-1.04585 -1.0332,0.93504 -2.37581,0.33234 -1.9179,-0.86096 0.19617,-0.51118 -0.19951,-1.15379 -1.05597,-1.71496 -1.3079,-0.85697 -1.36969,-0.84987 -1.36969,0.1574 0,0.58017 -0.26758,1.22022 -0.59462,1.42235 -0.40015,0.2473 -0.47614,-0.006 -0.23235,-0.77393 0.20453,-0.64441 0.12841,-1.14143 -0.17481,-1.14143 -0.2954,0 -0.69059,-0.48363 -0.8782,-1.07474 -0.18761,-0.59111 -0.837281,-1.34028 -1.443711,-1.66484 -0.80156,-0.42898 -1.00294,-0.42882 -0.73756,5.3e-4 0.20078,0.32487 0.13496,0.59068 -0.14627,0.59068 -0.28122,0 -0.65802,-0.3823 -0.83732,-0.84956 -0.47266,-1.23173 -0.42523,-1.30226 0.61389,-0.91282 0.81405,0.30508 0.84382,0.23406 0.22231,-0.53042 -0.39468,-0.48546 -0.5386,-1.17228 -0.31983,-1.52625 0.25682,-0.41555 0.16971,-0.50266 -0.24583,-0.24584 -0.35398,0.21878 -1.00008,0.10192 -1.43577,-0.25968 -0.63557,-0.52747 -0.992,-0.47661 -1.802954,0.25729 -0.59515,0.5386 -1.1445,0.69837 -1.33598,0.38854 -0.17887,-0.28941 -0.0216,-0.6486 0.34949,-0.79821 0.51189,-0.20637 0.50074,-0.28225 -0.0462,-0.31441 -0.3965,-0.0233 -1.36326,-0.56098 -2.14834,-1.1948 -1.40257,-1.13233 -1.40531,-1.14696 -0.1571,-0.83973 0.69868,0.17197 1.68213,0.0555 2.18545,-0.25882 0.81918,-0.51159 0.7196,-0.76138 -0.94991,-2.38278 -1.02576,-0.99621 -2.25089,-1.81499 -2.72252,-1.81951 -0.53119,-0.005 -0.63822,-0.15838 -0.28125,-0.40281 0.31694,-0.21703 0.74049,-0.87797 0.94121,-1.46876 0.33882,-0.99723 0.31253,-1.00685 -0.36692,-0.13428 -0.40254,0.51695 -1.03321,0.9399 -1.4015,0.9399 -0.39025,0 -0.53345,0.35483 -0.34323,0.85051 0.18719,0.4878 0.08,0.76838 -0.25137,0.65793 -0.31775,-0.10592 -0.51876,-0.30738 -0.44669,-0.44769 0.24555,-0.47806 -1.16042,-2.672 -1.71232,-2.672 -0.30244,0 -0.41348,0.22072 -0.24676,0.49047 0.16672,0.26976 -0.48365,0.45103 -1.44528,0.40281 -0.96163,-0.0482 -1.68799,-0.26892 -1.61414,-0.49047 0.0739,-0.22154 0.13427,-0.63692 0.13427,-0.92304 0,-0.28612 0.36704,-0.37938 0.81564,-0.20724 0.67256,0.25809 0.72504,0.0747 0.29921,-1.04533 -0.39513,-1.03927 -0.33441,-1.42817 0.25852,-1.6557 0.42623,-0.16356 0.77496,-0.75482 0.77496,-1.31392 0,-0.79976 -0.31498,-0.97358 -1.47698,-0.81504 -1.26549,0.17265 -1.32317,0.12893 -0.40281,-0.30528 0.79936,-0.37712 0.85766,-0.51643 0.22789,-0.54452 -0.82797,-0.0369 -3.32757,-2.30476 -3.0525,-2.76945 0.0765,-0.12932 -0.16292,0.11607 -0.53217,0.54531 -0.75958,0.883 -0.7902,0.77062 -0.78068,-2.86475 0.004,-1.44884 -0.15132,-2.37978 -0.3447,-2.06875 -0.20727,0.33336 -1.17482,-0.29395 -2.357,-1.52816 -1.10297,-1.1515 -1.79579,-2.09364 -1.5396,-2.09364 0.2562,0 0.57992,-0.59691 0.71938,-1.32646 0.1554,-0.8129 0.0429,-1.19626 -0.29053,-0.99018 -0.33542,0.20729 -0.42486,-0.11971 -0.23321,-0.85258 0.24745,-0.94626 0.16488,-1.06767 -0.40467,-0.59499 -0.52392,0.43482 -0.81651,0.43051 -1.09253,-0.0161 -0.20733,-0.33548 -0.83283,-0.49075 -1.38999,-0.34505 -0.55716,0.1457 -1.14837,0.0459 -1.31379,-0.22175 -0.16543,-0.26767 -0.0306,-0.48666 0.2997,-0.48666 0.33026,0 0.46186,-0.22429 0.29244,-0.49842 -0.16942,-0.27413 0.21822,-0.66544 0.86142,-0.86958 1.0348,-0.32844 1.06662,-0.42873 0.27634,-0.87099 -0.49121,-0.2749 -0.89312,-0.87993 -0.89312,-1.34451 0,-0.66142 -0.16245,-0.70988 -0.74872,-0.22332 -0.57673,0.47865 -0.93805,0.43207 -1.57289,-0.20278 -0.45329,-0.45329 -1.19638,-0.82416 -1.6513,-0.82416 -0.53775,0 -0.71169,-0.30083 -0.49718,-0.85983 0.18147,-0.47291 0.0241,-1.04885 -0.34966,-1.27986 -0.45363,-0.28036 -0.025,-0.63604 1.28893,-1.06969 1.59448,-0.52623 1.85042,-0.79202 1.34689,-1.39873 -0.34191,-0.41198 -0.46824,-1.14885 -0.28074,-1.63749 0.28533,-0.74355 0.20754,-0.77773 -0.47699,-0.20962 -0.67535,0.56049 -0.81793,0.52692 -0.81793,-0.19258 0,-0.47926 0.36254,-0.87138 0.80563,-0.87138 0.96987,0 0.97968,-0.10454 0.17539,-1.86977 -0.3862,-0.84761 -0.7732,-1.15191 -0.99943,-0.78586 -0.24583,0.39776 -0.47825,0.31313 -0.69561,-0.2533 -0.20496,-0.53411 -0.0379,-0.85066 0.44904,-0.85066 0.63135,0 0.66552,-0.27452 0.18386,-1.47699 -1.34908,-3.368 -5.37373,-14.98394 -5.53609,-15.97826 -0.0965,-0.59079 -0.58165,-3.24936 -1.07818,-5.90793 -1.52715,-8.17676 -1.62941,-9.3734 -1.62941,-19.06649 0,-9.50319 0.33703,-13.54622 1.45508,-17.45524 0.33796,-1.18159 0.56888,-2.33828 0.51317,-2.57042 -0.2055,-0.85623 3.35406,-10.89915 4.30197,-12.13756 0.53923,-0.70448 0.98042,-1.51333 0.98042,-1.79744 0,-0.8114 5.88172,-9.636845 7.59131,-11.390665 0.84652,-0.86842 1.53912,-1.78901 1.53912,-2.04577 0,-0.25674 0.24169,-0.31744 0.53708,-0.13488 0.2954,0.18257 0.53838,0.0156 0.53995,-0.37111 0.002,-0.38668 2.41472,-2.97529 5.36254,-5.75245 5.13927,-4.84174 7.99855,-7.03501 9.17132,-7.03501 0.3006,0 1.08025,-0.49752 1.73254,-1.1056 2.948354,-2.748536 18.082095,-9.280035 24.012075,-10.363257 2.55446,-0.46662 6.71712,-1.577745 7.61012,-2.031342 0.56563,-0.287305 0.9716,-0.230311 1.09985,0.154403 0.14417,0.432525 0.50809,0.449411 1.25176,0.05808 0.57668,-0.303451 2.13609,-0.709655 3.46538,-0.902671 7.40552,-1.07532 10.104586,-2.025325 13.207053,-4.648557 2.867784,-2.424803 5.035275,-5.821103 5.06702,-7.939648 0.01624,-1.084922 1.964708,-6.989144 2.575922,-7.805587 0.244922,-0.327165 0.739018,-1.622018 1.097989,-2.877452 0.358971,-1.255435 0.858465,-2.282608 1.109975,-2.282608 0.251518,0 0.60988,-0.60792 0.796369,-1.350934 0.400534,-1.595866 1.143955,-2.577081 5.355027,-7.067917 1.738418,-1.853915 3.369812,-3.241554 3.625318,-3.08364 0.255508,0.157909 0.464558,-0.08968 0.464558,-0.550209 0,-0.460529 0.370115,-0.837327 0.822478,-0.837327 0.452372,0 0.952826,-0.339651 1.112126,-0.754785 0.862298,-2.247119 10.668349,-6.886405 18.962431,-8.971216 3.8682946,-0.972339 5.5243696,-1.093113 11.5473096,-0.8421 10.4396904,0.435075 14.7432304,0.983004 15.3430104,1.953472 0.22099,0.357557 0.56006,0.602625 0.7535,0.544594 0.19344,-0.05803 1.44933,0.05908 2.79086,0.26026 1.8046,0.270613 2.56189,0.670372 2.91098,1.536623 0.2595,0.643964 0.48714,0.891368 0.50587,0.549778 0.0606,-1.105519 2.18238,-0.118798 2.18238,1.014894 0,0.830607 0.25863,1.006541 1.14061,0.775896 1.26504,-0.330814 6.81985,2.520884 7.28829,3.741629 0.51547,1.343316 1.67772,0.748038 4.8703,-2.494446 1.7451,-1.77238 3.45454,-3.222509 3.79875,-3.222509 0.34421,0 0.62583,-0.326416 0.62583,-0.725373 0,-0.398958 1.32929,-1.942899 2.95397,-3.430982 1.62468,-1.488078 2.95396,-2.574713 2.95396,-2.414744 0,0.159978 0.80733,-0.531696 1.79407,-1.537049 0.98674,-1.00535 3.1015,-3.020234 4.69949,-4.4775217 1.59798,-1.457285 4.96766,-4.599231 7.48818,-6.982096 4.37456,-4.135659 13.06191,-12.089261 16.03776,-14.6831903 0.76997,-0.671147 2.42394,-2.19792 3.67551,-3.392828 1.25155,-1.194908 2.52042,-2.021229 2.81969,-1.83627 0.29927,0.184959 0.57434,0.08034 0.61126,-0.232492 0.0369,-0.31283 0.12756,-0.81047 0.20141,-1.105866 0.0739,-0.295397 0.16448,-0.91388 0.2014,-1.374408 0.0369,-0.460528 0.3081,-0.688404 0.6026,-0.506391 0.34472,0.21305 0.37255,-0.110465 0.0781,-0.9082 -0.25154,-0.681524 -0.31123,-2.987366 -0.13265,-5.124093 l 0.3247,-3.884959 4.80047,-4.037036 c 2.64025,-2.220369 4.97115,-4.037035 5.17977,-4.037035 0.20862,0 1.16056,-0.729803 2.11543,-1.621784 0.954869,-0.89198 3.820259,-2.976032 6.367539,-4.631226 2.54728,-1.655194 4.81418,-3.323483 5.03756,-3.70731 0.22337,-0.383827 1.21403,-1.197175 2.20145,-1.807436 1.66117,-1.026657 2.37329,-1.088498 9.52992,-0.827577 13.41272,0.489011 15.43665,0.736063 16.6793,2.035975 2.41431,2.52558 10.80188,14.031796 11.32729,15.538957 0.35761,1.025832 0.40717,3.556098 0.13787,7.038607 -0.51154,6.615415 -0.69268,8.577139 -0.82438,8.928085 -0.0554,0.147698 -0.0542,0.831622 0.003,1.519832 0.0569,0.688209 -0.33927,1.586852 -0.88043,1.996985 -0.78912,0.598029 -0.82441,0.75968 -0.17833,0.816313 0.4431,0.03884 0.20141,0.264123 -0.53707,0.500629 -0.89517,0.286674 -1.02942,0.447857 -0.40283,0.483548 0.51694,0.02945 0.9399,0.321083 0.9399,0.648083 0,0.327301 -0.39094,0.444532 -0.86971,0.260805 -0.69373,-0.26621 -0.81748,-0.06048 -0.61156,1.016706 0.26454,1.3838943 -0.36179,1.8851983 -0.84846,0.6790943 -0.15902,-0.3940783 -0.2884,-0.275363 -0.31329,0.287438 -0.0344,0.778714 -0.23752,0.85437 -1.08125,0.402814 -1.31093,-0.701584 -1.80413,-0.708347 -1.37803,-0.0189 0.18256,0.295397 0.0558,0.537085 -0.2816,0.537085 -0.33745,0 -0.50276,0.30211 -0.36738,0.671355 0.13539,0.369246 0.51807,0.610934 0.85038,0.537084 0.33232,-0.07385 0.60423,0.220676 0.60423,0.6545 0,0.455122 -0.31779,0.66682 -0.7513,0.500469 -0.87925,-0.337402 -1.66064,0.632783 -0.89217,1.107729 0.82014,0.506874 0.0264,1.899706 -1.08255,1.899706 -0.70009,0 -0.89998,0.260271 -0.66673,0.868108 0.288,0.750511 0.1678,0.77963 -0.8873,0.214959 -0.89314,-0.477994 -1.11657,-0.485117 -0.83317,-0.02656 0.24874,0.402454 0.0517,0.565711 -0.55081,0.456398 -0.51595,-0.09361 -1.05493,0.165559 -1.19775,0.57592302 -0.1583,0.454855 -0.0228,0.599727 0.3471,0.371116 0.33371,-0.206249 0.60676,-0.119047 0.60676,0.193783 0,0.312829 -0.4758,0.568781 -1.05732,0.568781 -0.69363,0 -0.95645,0.262821 -0.7641,0.7641 0.16127,0.42025498 -0.20885,1.26616498 -0.82248,1.87979498 -0.61363,0.613634 -1.1157,1.357383 -1.1157,1.65278 0,0.295397 -0.49763,0.537083 -1.10586,0.537083 -0.62181,0 -0.95624,0.242096 -0.76404,0.55309 0.188,0.304194 -0.40195,1.400202 -1.31101,2.435567 -0.90907,1.035362 -1.65284,1.632381 -1.65284,1.32671 0,-0.305675 -0.42296,-0.552074 -0.9399,-0.547552 -0.53077,0.0047 -0.70611,0.179988 -0.40282,0.402812 0.9168,0.673558 0.93418,1.9015577 0.022,1.5515087 -0.45517,-0.17467 -0.82759,-0.08347 -0.82759,0.202647 0,0.286125 -0.36252,0.520231 -0.80562,0.520231 -0.4431,0 -0.81297,0.302109 -0.82196,0.671354 -0.009,0.369247 -0.27891,0.219405 -0.59983,-0.332981 -0.47114,-0.810937 -0.67326,-0.862647 -1.04961,-0.268542 -0.63185,0.997413 -0.60265,1.679033 0.0545,1.272879 0.48428,-0.299302 0.56966,-0.101867 0.52262,1.208439 -0.008,0.221549 -0.65124,0.451758 -1.42952,0.51158 -1.61113,0.123836 -2.58449,1.262991 -1.6159,1.891139 0.43582,0.282641 0.25558,0.5232 -0.5594,0.746596 -0.66132,0.181271 -1.04463,0.584866 -0.85179,0.896882 0.21794,0.352634 0.0145,0.438314 -0.53767,0.226435 -0.8786,-0.337156 -3.15626,1.450314 -3.75582,2.94749 -0.21169,0.528611 -0.29154,0.536147 -0.32347,0.03052 -0.0693,-1.097235 -1.02761,-0.762325 -1.21349,0.424088 -0.0944,0.602496 -0.38629,1.065228 -0.64866,1.028298 -0.81828,-0.115179 -1.39159,1.310013 -0.70305,1.747721 0.44442,0.282522 0.37046,0.411302 -0.23943,0.416991 -0.48535,0.0045 -1.01999,0.366678 -1.18812,0.804794 -0.18933,0.49341 -0.65355,0.66308 -1.21973,0.445812 -0.50321,-0.193098 -0.7791,-0.128675 -0.61379,0.143327 0.16515,0.271749 -0.0369,0.805723 -0.44898,1.186617 -0.61706,0.570346 -0.74925,0.542504 -0.74925,-0.157816 0,-1.207312 -1.67155,-0.792065 -2.89429,0.718995 -0.75482,0.93282 -1.12234,1.079206 -1.43586,0.571926 -0.28166,-0.455737 -0.59701,-0.07009 -0.95114,1.163169 -0.32392,1.128101 -0.55166,1.427591 -0.58612,0.770786 -0.0501,-0.955378 -0.13338,-0.925681 -0.75288,0.268542 -0.38308,0.738492 -0.51246,1.470338 -0.28752,1.626323 0.22494,0.155985 -0.29083,0.593389 -1.14618,0.971999 -0.92369,0.408866 -1.44387,0.978461 -1.28105,1.402742 0.15076,0.392898 -0.345739,1.33422 -1.103349,2.091825 -0.75761,0.757605 -1.37747,1.146767 -1.37747,0.864798 0,-0.281969 -0.24168,-0.512675 -0.53708,-0.512675 -0.2954,0 -0.50846,0.181266 -0.47348,0.402815 0.18238,1.155102 -0.12999,2.282608 -0.63239,2.282608 -0.31283,0 -0.41941,-0.241689 -0.23684,-0.537086 0.5922,-0.958201 -0.7752,-0.567515 -1.8798,0.537086 -0.59079,0.590794 -1.28262,1.074169 -1.5374,1.074169 -0.25477,0 -0.39853,0.589364 -0.31945,1.30969 0.0791,0.720333 -0.17235,1.742001 -0.5587,2.270374 -0.77893,1.065254 -4.02466,1.482852 -4.03768,0.51949 -0.0159,-1.175109 -1.0496,1.016855 -1.05773,2.242887 -0.005,0.682074 -0.22458,1.106413 -0.48903,0.94298 -0.51716,-0.319625 -1.31761,1.069991 -1.36918,2.376979 -0.0175,0.442423 -0.75193,0.954554 -1.64195,1.144892 -0.8857,0.189413 -1.36867,0.382447 -1.07328,0.428959 0.2954,0.04651 -0.2484,0.425971 -1.20844,0.843242 -1.65362,0.718733 -2.38953,1.884702 -1.18954,1.884702 0.36523,0 0.34542,0.393435 -0.0577,1.146728 -0.49034,0.916196 -0.70843,0.997172 -1.08484,0.402812 -0.35365,-0.558411 -0.47318,-0.45048 -0.47936,0.432826 -0.005,0.647208 -0.24991,1.326116 -0.54531,1.508681 -0.29539,0.182565 -0.53708,-0.151442 -0.53708,-0.742236 0,-1.517782 -0.91593,-1.899708 -1.58002,-0.658846 -0.41073,0.767463 -0.38254,1.10495 0.1059,1.267766 0.6657,0.221904 -1.49291,1.683846 -2.55401,1.72973 -0.2954,0.01278 -0.53709,0.746403 -0.53709,1.630283 0,1.241663 -0.26589,1.644922 -1.16944,1.773576 -0.64319,0.09158 -1.45626,0.51212 -1.80682,0.934527 -0.5112,0.615955 -0.42089,0.848828 0.4561,1.176197 0.99409,0.371078 1.0258,0.530249 0.34888,1.750896 -0.45093,0.813123 -0.75886,1.024962 -0.78073,0.537083 -0.0277,-0.619101 -0.21868,-0.56425 -0.82466,0.236924 -0.57438,0.759396 -0.7978,0.832332 -0.82259,0.268544 -0.0187,-0.425704 -0.27707,-0.169788 -0.5741,0.568701 -0.47461,1.180012 -0.61692,1.239483 -1.1744,0.490789 -0.57313,-0.769723 -0.73683,-0.754169 -1.69659,0.161221 -0.83225,0.793774 -0.90972,1.107419 -0.35779,1.448538 0.54427,0.336375 0.48049,0.532847 -0.28044,0.863944 -0.54172,0.235699 -1.17768,0.386358 -1.41325,0.334785 -0.23557,-0.05157 -0.3882,0.212164 -0.33917,0.586089 0.23543,1.795833 -0.0732,2.661113 -0.84377,2.36542 -0.4431,-0.170029 -0.80563,-0.09518 -0.80563,0.166325 0,0.261512 1.10774,0.47547 2.46164,0.47547 1.3539,0 2.58251,0.120883 2.73026,0.268618 0.14773,0.147741 1.39645,-0.297868 2.77493,-0.990232 1.37847,-0.692367 2.69228,-1.271442 2.91957,-1.286828 0.22728,-0.0154 0.93713,-0.516054 1.57744,-1.112591 l 1.16419,-1.084612 1.29328,1.207683 c 1.56875,1.464916 3.07404,4.163565 2.87568,5.155436 -0.0798,0.3989 0.0872,0.58175 0.37097,0.40635 0.28447,-0.17582 0.92744,1.35996 1.43294,3.42267 0.71939,2.93555 0.85687,5.21996 0.63818,10.6039 -0.15332,3.77426 -0.39917,7.708202 -0.54632,8.742092 -0.14717,1.03389 -0.42055,3.56112 -0.60752,5.61608 -0.18696,2.05495 -0.6302,4.09527 -0.98497,4.53404 -0.50999,0.63075 -0.50136,0.7114 0.0412,0.38524 0.76476,-0.45973 0.5504,1.68823 -0.42431,4.25192 -0.29597,0.77847 -0.40129,1.6368 -0.23405,1.90741 0.16725,0.2706 0.0481,0.49201 -0.2647,0.49201 -0.31283,0 -0.56878,0.38643 -0.56878,0.85873 0,1.38839 -4.01731,10.2174 -5.17648,11.37658 -0.40772,0.40772 -0.59745,0.9741 -0.42161,1.25862 0.40918,0.66207 -0.81412,2.16518 -1.44486,1.77536 -0.43201,-0.26699 -0.70168,0.48959 -0.53983,1.5146 0.035,0.22155 -0.41978,0.40281 -1.01057,0.40281 -0.65293,0 -1.07417,0.35806 -1.07417,0.91304 0,0.71015 0.14322,0.76982 0.6445,0.26855 0.75435,-0.75436 1.70651,-0.86986 1.26365,-0.15329 -0.16697,0.27016 3e-5,0.61362 0.37111,0.76322 0.37109,0.14961 0.0396,0.2911 -0.73652,0.31442 -1.51759,0.0456 -3.39352,1.62184 -2.01131,1.69 0.40541,0.02 0.19332,0.29862 -0.47133,0.61916 -0.66464,0.32055 -1.20844,1.01498 -1.20844,1.54321 0,1.1423 -0.85937,1.80584 -1.33729,1.03255 -0.63476,-1.02706 -1.41236,-0.59524 -0.8432,0.46824 0.45493,0.85004 0.32766,1.05521 -0.78673,1.26824 -0.7312,0.13978 -1.32945,0.046 -1.32945,-0.20847 0,-0.25443 -0.45752,-0.4626 -1.01671,-0.4626 -1.15958,0 -2.00101,1.61102 -1.1244,2.1528 0.38775,0.23965 0.30457,0.58806 -0.25035,1.04861 -0.63032,0.52311 -1.0107,0.5406 -1.57483,0.0724 -0.59382,-0.49283 -0.81356,-0.33922 -1.08991,0.76183 -0.19037,0.75851 -0.58074,1.23412 -0.86748,1.05691 -0.28673,-0.17721 -0.52133,-0.0875 -0.52133,0.19937 0,0.28686 -0.98564,0.68809 -2.19032,0.89162 -2.09904,0.35463 -2.1438,0.40263 -1.07417,1.15183 0.61388,0.42998 1.11615,1.03936 1.11615,1.35418 0,0.36237 -0.2956,0.32706 -0.80563,-0.0962 -0.53143,-0.44105 -0.80562,-0.46917 -0.80562,-0.0826 0,0.32229 -0.33809,0.45626 -0.7513,0.29769 -0.41322,-0.15857 -0.91086,-0.0301 -1.10587,0.2854 -0.19501,0.31553 -0.8841,0.5774 -1.53131,0.58192 -0.95667,0.007 -1.02608,0.10559 -0.37112,0.52886 0.72162,0.46635 0.39378,0.76586 -0.66119,0.60408 -0.65518,-0.10048 -2.25451,2.7028 -2.38653,4.18305 -0.0682,0.76414 -0.25576,2.96031 -0.41692,4.88039 -1.65364,19.70326 -2.4846,27.42719 -2.92241,27.16439 -0.17958,-0.1078 -0.36353,1.08307 -0.4088,2.64636 -0.0879,3.03711 -3.73763,14.58994 -5.55135,17.57236 -0.76266,1.25409 -0.88264,1.88774 -0.455,2.40302 0.43482,0.52392 0.37117,0.6998 -0.25324,0.6998 -0.45873,0 -0.91701,0.5438 -1.01842,1.20844 -0.10141,0.66464 -0.48075,1.14802 -0.84298,1.07417 -0.36223,-0.0738 -0.6586,0.22826 -0.6586,0.67136 0,0.44309 -0.24169,0.80562 -0.53709,0.80562 -0.2954,0 -0.54078,0.66465 -0.5453,1.47698 -0.006,1.05591 -0.14255,1.2649 -0.47936,0.73307 -0.37642,-0.59436 -0.59451,-0.51338 -1.08484,0.40281 -0.50278,0.93945 -0.46467,1.14673 0.21081,1.14673 0.64787,0 0.58548,0.23905 -0.29117,1.1157 -0.61363,0.61363 -0.97769,1.47534 -0.80901,1.91491 0.2236,0.58268 0.0408,0.71484 -0.67458,0.48778 -0.64664,-0.20524 -0.98128,-0.0421 -0.98128,0.47834 0,0.43438 0.20141,0.66531 0.44757,0.51316 0.24616,-0.15213 0.44757,-0.0207 0.44757,0.29217 0,0.31283 -0.25019,0.56879 -0.55598,0.56879 -0.37695,0 -0.37087,0.34589 0.0189,1.07417 0.38977,0.72828 0.39585,1.07417 0.0189,1.07417 -0.30578,0 -0.55597,-0.24169 -0.55597,-0.53709 0,-0.2954 -0.66465,-0.53338 -1.47699,-0.52886 -1.15094,0.006 -1.29913,0.12316 -0.67135,0.52886 0.44309,0.28635 0.56394,0.52804 0.26854,0.53709 -0.2954,0.009 -0.22679,0.21333 0.15246,0.45397 0.37925,0.24064 0.53519,0.83977 0.34653,1.33141 -0.18865,0.49162 -0.56331,0.75771 -0.83257,0.5913 -0.26926,-0.16642 -0.35052,-0.52756 -0.18057,-0.80255 0.16995,-0.27498 0.053,-0.49997 -0.25978,-0.49997 -0.31283,0 -0.56878,0.23411 -0.56878,0.52023 0,0.28613 -0.33134,0.39308 -0.73632,0.23768 -0.78842,-0.30255 -1.61509,1.16442 -1.11352,1.97598 0.16609,0.26874 -0.0547,0.48862 -0.49059,0.48862 -0.43591,0 -0.91447,-0.30211 -1.06346,-0.67136 -0.15356,-0.38056 -0.28926,-0.23935 -0.3133,0.32601 -0.028,0.658 -0.31652,0.89217 -0.84803,0.68821 -0.44309,-0.17003 -0.80562,-0.0952 -0.80562,0.16632 0,0.26151 0.3021,0.58625 0.67135,0.72164 0.53708,0.19693 0.53708,0.38849 0,0.9578 -0.36925,0.3914 -0.67135,1.14667 -0.67135,1.67839 0,0.53171 0.3021,0.97429 0.67135,0.98351 0.36925,0.009 -0.2954,0.61812 -1.47698,1.3531 -1.18159,0.73499 -2.08862,1.57125 -2.01563,1.85835 0.14321,0.5633 -2.85945,0.40056 -3.44685,-0.18685 -0.56069,-0.56069 -1.3509604,-0.41499 -0.9825304,0.18115 0.1825604,0.29539 0.076,0.5371 -0.23685,0.5371 -0.31283,0 -0.56878,-0.24171 -0.56878,-0.5371 0,-1.02954 -0.8462,-0.52887 -0.92737,0.54868 -0.045,0.5972 0.14527,0.94547 0.42279,0.77394 0.27752,-0.17151 0.50458,-0.0821 0.50458,0.1987 0,0.28083 -0.58176,0.65659 -1.29282,0.83505 -0.71104,0.17846 -1.71744,0.48742 -2.23644,0.68657 -0.69959,0.26847 -0.82861,0.176 -0.49887,-0.35751 0.32919,-0.53266 0.20112,-0.62613 -0.49291,-0.35983 -0.51571,0.19791 -1.28042,0.35983 -1.69936,0.35983 -0.41893,0 -0.7617,0.21905 -0.7617,0.48678 0,0.26776 0.48338,0.36042 1.07417,0.20593 0.59079,-0.15452 1.07417,-0.0185 1.07417,0.30194 0,0.3206 0.36527,0.44273 0.81172,0.27138 0.55282,-0.21211 0.71675,-0.064 0.51397,0.46445 -0.31443,0.81939 -1.86277,1.09231 -1.86277,0.32832 0,-0.24614 -0.20818,-0.44756 -0.46261,-0.44756 -0.25443,0 -0.34023,0.64016 -0.19067,1.42253 0.18975,0.99261 0.0834,1.30606 -0.35178,1.03706 -0.34305,-0.21201 -0.48467,-0.61045 -0.31472,-0.88546 0.16995,-0.27498 0.053,-0.49995 -0.25978,-0.49995 -0.31283,0 -0.56878,0.4028 -0.56878,0.89514 0,0.49233 -0.15903,0.73612 -0.3534,0.54173 -0.19437,-0.19436 -0.67774001,-0.0842 -1.07417001,0.24479 -0.53098,0.44069 -0.91801,0.4345 -1.46985999,-0.0236 -0.59185,-0.49119 -0.73277,-0.43256 -0.67136,0.27925 0.0428,0.49551 -0.25801,1.01872 -0.66838,1.16268 -0.45523,0.1597 -0.59991,0.0251 -0.37111,-0.34499 0.20625,-0.33372 0.11905,-0.60677 -0.19378,-0.60677 -0.31283,0 -0.56878,0.25368 -0.56878,0.56378 0,0.37036 -0.30964,0.39049 -0.90263,0.0586 -1.046692,-0.58576 -2.319883,0.39542 -2.319883,1.78781 0,0.48162 -0.256913,0.71689 -0.570925,0.52282 -0.31401,-0.19407 -1.008359,0.043 -1.543,0.52687 -0.9073456,0.82113 -0.9918826,0.80393 -1.2696766,-0.25834 -0.218546,-0.83574 -0.094,-1.05995 0.4688256,-0.84397 0.465952,0.1788 0.766439,-0.0409 0.766439,-0.56042 0,-0.63539 0.177088,-0.70757 0.690536,-0.28143 0.522402,0.43354 0.690539,0.31877 0.690539,-0.47133 0,-1.17666 -0.358675,-1.3149 -1.207992,-0.46559 -0.318358,0.31837 -1.4719056,0.78026 -2.5634396,1.02645 -1.637866,0.36939 -1.931926,0.31031 -1.683072,-0.33819 0.16897,-0.44034 0.06812,-0.64153 -0.229394,-0.45765 -0.292013,0.18045 -0.530934,0.66882 -0.530934,1.08519 0,0.42796 -0.326597,0.63175 -0.751303,0.46879 -0.413216,-0.15857 -0.910852,-0.0301 -1.105866,0.28538 -0.19971,0.32313 0.06977,0.58856 0.61703,0.60775 0.764442,0.0268 0.706588,0.14033 -0.271346,0.53255 -0.683623,0.27416 -1.092312,0.74221 -0.908204,1.0401 0.18411,0.2979 0.01836,0.56439 -0.368308,0.59219 -0.386678,0.0278 -1.428117,0.0882 -2.314305,0.13428 -0.88619,0.046 -1.940385,0.29594 -2.342655,0.55533 -0.466696,0.30094 -0.889241,0.21625 -1.167509,-0.23399 -0.356242,-0.57643 -0.606229,-0.56444 -1.365173,0.0654 -0.510987,0.42407 -1.34452,0.70067 -1.852289,0.61465 -0.542259,-0.0919 -1.033971,0.2671 -1.191604,0.86987 -0.349272,1.33562 -2.255158,1.23439 -3.320111,-0.17632 -0.446178,-0.59102 -0.818581,-0.77221 -0.827979,-0.40282 -0.0094,0.36925 -0.273032,0.67135 -0.585862,0.67135 -0.312833,0 -0.419409,-0.24167 -0.236844,-0.53708 0.182565,-0.29538 -0.019,-0.53708 -0.447924,-0.53708 -0.428927,0 -0.92587,0.3805 -1.104326,0.84553 -0.29342,0.76465 -0.407802,0.76219 -1.195564,-0.0257 -0.479113,-0.47911 -1.016606,-0.7256 -1.194435,-0.54777 -0.177822,0.17783 0.03221,0.54816 0.466754,0.82296 0.535048,0.33838 0.57337,0.50231 0.118718,0.5079 -0.369247,0.004 -0.671356,0.37076 -0.671356,0.81385 0,1.45878 -1.094267,0.83939 -1.423273,-0.80563 z m -2.873402,-1.05529 c 0,-0.28498 -0.543798,-0.80354 -1.208442,-1.15231 -1.201962,-0.63074 -1.202954,-0.62796 -0.185298,0.51819 1.136647,1.28016 1.39374,1.39713 1.39374,0.63412 z m 3.289152,-1.77337 c -0.530434,-0.52647 -0.592124,-0.46479 -0.300659,0.30067 0.201691,0.52967 0.502007,0.82775 0.667369,0.66239 0.165364,-0.16534 2.64e-4,-0.59873 -0.36671,-0.96306 z m 7.452534,-26.75212 c -1.336656,-0.31061 -0.715928,-0.37656 2.148338,-0.22826 2.879714,0.1491 3.645326,0.0669 2.685423,-0.2884 -1.006465,-0.3725 -0.60297,-0.4369 1.611254,-0.25717 2.164122,0.17567 2.666746,0.0997 1.879793,-0.28402 -0.821888,-0.40079 -0.601147,-0.45367 0.939898,-0.22516 1.310616,0.19434 2.014066,0.0877 2.014066,-0.30545 0,-0.40019 0.589167,-0.47787 1.745525,-0.23014 0.960038,0.20568 1.56059,0.18093 1.334559,-0.055 -0.430861,-0.44971 7.4913426,-3.43976 9.8099426,-3.70252 2.180405,-0.24711 2.226195,-0.26727 1.879795,-0.82777 -0.18257,-0.2954 0.15144,-0.53708 0.74223,-0.53708 0.5908,0 1.22688,-0.2471 1.41353,-0.54911 0.28407,-0.45963 5.7921,-3.47339 7.10584,-3.888 0.22325,-0.0705 0.33562,-0.33903 0.24969,-0.59681 -0.0859,-0.25779 0.22873,-0.32098 0.69924,-0.14043 0.47052,0.18056 0.71579,0.10224 0.54504,-0.17404 -0.26401,-0.42718 3.5400604,-3.59633 7.7632104,-6.46747 1.78638,-1.21449 2.87484,-2.24949 4.23615,-4.02813 0.67826,-0.88619 2.18018,-2.62423 3.3376,-3.86232 1.15742,-1.23808 2.1044,-2.38868 2.1044,-2.55688 0,-0.16821 1.30612,-2.41802 2.9025,-4.99959 3.1915,-5.16111 6.11553,-12.036 7.9356,-18.65794 1.08863,-3.96074 1.18878,-5.6252 1.28091,-21.28878 l 0.1,-16.99211 1.40654,-3.07231 c 1.953,-4.26591 5.03005,-8.32711 6.30921,-8.32711 0.57491,0 1.18915,-0.3749 1.36498,-0.83312 0.33948,-0.88467 7.14234,-4.53772 8.45032,-4.53772 0.42585,0 0.85774,-0.25039 0.95975,-0.55643 0.10202,-0.30604 1.03894,-0.84983 2.08205,-1.20844 1.04311,-0.35861 1.99092,-0.8937 2.10623,-1.18909 0.11532,-0.2954 1.31331,-1.37131 2.6622,-2.39092 1.3489,-1.01961 2.76835,-2.28847 3.15434,-2.81969 0.386,-0.53123 1.05064,-0.96586 1.47699,-0.96586 0.42635,0 0.77517,-0.2771 0.77517,-0.61577 0,-0.33867 0.86918,-1.92523 1.9315,-3.52568 2.66857,-4.02038 4.32701,-8.342915 4.96369,-12.937275 0.80394,-5.80136 -0.4237,-13.14645 -2.31883,-13.87368 -0.44583,-0.17108 -0.67688,-0.52742 -0.51344,-0.79186 0.39401,-0.63752 0.0226,-0.60631 -1.60393,0.13481 -0.74312,0.33859 -1.22586,0.81833 -1.07274,1.06609 0.15312,0.24775 -0.5191,0.32863 -1.49382,0.17974 -1.36632,-0.20872 -1.5262,-0.15719 -0.69806,0.22497 1.61268,0.74421 -8.66579,0.0443 -11.44944,-0.7797 -3.69412,-1.09343 -7.43508,-3.934747 -8.71724,-6.62086 -1.95751,-4.100973 -2.07809,-4.112022 -6.02276,-0.551813 -1.93821,1.749301 -3.76115,3.180546 -4.051,3.180546 -0.28984,0 -0.67198,0.377849 -0.84919,0.839666 -0.17722,0.461817 -0.56561,0.689239 -0.86309,0.505391 -0.73037,-0.451392 -0.681,0.90832 0.12697,3.49716 0.36732,1.17693 0.97912,2.13988 1.35957,2.13988 0.38044,0 0.83221,0.36613 1.00393,0.81363 0.40262,1.0492 3.41106,4.2794 3.42188,3.67412 0.005,-0.25279 0.18579,-0.1941 0.40282,0.13041 1.36159,2.036 12.51737,5.58644 17.55304,5.58644 1.75147,0 2.44513,0.21586 2.44513,0.76087 0,0.41848 -0.28508,0.8559 -0.63351,0.97204 -0.34842,0.11614 -0.68564,0.96431 -0.74937,1.88482 -0.13189,1.90509 -0.64571,2.96469 -1.25502,2.58811 -0.22843,-0.14117 -1.50504,1.00553 -2.83691,2.548235 -1.33188,1.5427 -3.48474,3.51423 -4.78413,4.38119 -1.2994,0.86694 -2.89733,2.11291 -3.55095,2.76881 -0.69986,0.70229 -1.59846,1.08532 -2.18586,0.93171 -0.54859,-0.14346 -1.31227,0.11849 -1.69705,0.58213 -0.38477,0.46362 -1.12078,0.84296 -1.63557,0.84296 -0.51479,0 -1.51237,0.43258 -2.21685,0.96129 -0.70447,0.5287 -1.95036,1.2508 -2.76864,1.60465 -0.81826,0.35385 -1.71861,1.25056 -2.00077,1.99268 -0.28215,0.74212 -0.70025,1.34988 -0.92911,1.35057 -1.08748,0.003 -3.99849,3.30037 -5.68922,6.44375 -3.45762,6.42836 -4.23096,10.87663 -4.43521,25.51151 -0.18292,13.1067 -0.50131,17.14441 -1.31239,16.64314 -0.24881,-0.15377 -0.60419,-0.034 -0.78973,0.26626 -0.18554,0.30021 0.0394,0.54584 0.49997,0.54584 0.46053,0 0.83733,0.36254 0.83733,0.80563 0,0.44309 -0.22912,0.80562 -0.50915,0.80562 -0.30723,0 -0.28261,0.64985 0.0621,1.63868 0.31419,0.90126 0.42246,1.78745 0.24061,1.9693 -0.18186,0.18186 -0.33434,-0.0118 -0.33887,-0.43022 -0.007,-0.62649 -0.10018,-0.61859 -0.52886,0.0447 -0.70175,1.08589 -0.67222,1.75817 0.0574,1.30722 0.85183,-0.52646 0.15982,2.37963 -1.76697,7.4204 -0.95732,2.50451 -1.89638,4.16241 -2.35763,4.16241 -0.42163,0 -0.76659,0.48337 -0.76659,1.07417 0,0.59079 -0.20957,1.07416 -0.46571,1.07416 -0.25615,0 -1.07582,0.92193 -1.8215,2.04872 -0.74567,1.1268 -2.10975,2.8027 -3.03127,3.72423 -1.04749,1.04749 -1.45683,1.81064 -1.09208,2.03607 0.74232,0.45878 -1.5020404,2.94818 -2.3742304,2.63345 -0.3378,-0.12189 -0.97672,0.56021 -1.41981,1.51578 -0.49718,1.07219 -1.26831,1.80312 -2.01407,1.90903 -0.68891,0.0978 -1.20844,0.5481 -1.20844,1.04732 0,0.67125 -0.14748,0.7282 -0.63172,0.24396 -0.73311,-0.7331 -2.0537,0.0777 -2.0537,1.26095 0,0.39189 -0.78549001,1.30018 -1.74552001,2.01843 -2.23571999,1.67262 -12.12635359,6.35358 -13.64411759,6.45738 -0.636294,0.0435 -1.019601,0.30145 -0.851794,0.5732 0.168039,0.27211 -0.103566,0.33726 -0.604557,0.145 -0.500322,-0.19198 -2.585236,0.003 -4.633138,0.43419 -10.986373,2.31105 -26.438306,2.03879 -33.996539,-0.59901 -1.119677,-0.39077 -1.890898,-0.47607 -1.713831,-0.18956 0.17707,0.2865 0.09185,0.52092 -0.18937,0.52092 -0.281229,0 -0.627589,-0.30298 -0.769679,-0.67328 -0.1421,-0.3703 -1.19514,-1.00596 -2.34008,-1.41258 -1.14494,-0.40662 -3.59796,-1.42035 -5.45116,-2.25275 -1.85319,-0.83239 -3.49321,-1.51739 -3.6445,-1.5222 -0.15127,-0.005 -0.63983,-0.37354 -1.08567,-0.81937 -0.44584,-0.44584 -1.77378,-1.06997 -2.95099,-1.38696 -1.1772,-0.31699 -2.01489,-0.77937 -1.86153,-1.02751 0.15336,-0.24814 -0.12743,-0.78065 -0.62398,-1.18337 -0.76421,-0.6198 -0.83428,-0.61845 -0.45641,0.009 0.31035,0.51519 0.21901,0.65842 -0.29971,0.46995 -0.41037,-0.14909 -0.68885,-0.53353 -0.61885,-0.85432 0.07,-0.32077 -1.01759,-1.3649 -2.41688,-2.32027 -1.39928,-0.95538 -2.21245,-1.32736 -1.80704,-0.82662 0.64263,0.79371 0.6082,0.91356 -0.26854,0.93483 -0.55311,0.0134 -2.09325,1.09903 -3.42254,2.41248 -1.32928,1.31345 -2.59814,2.39007 -2.81969,2.39249 -0.22155,0.002 -0.40281,0.32947 -0.40281,0.72678 0,0.39731 -0.48338,1.15983 -1.07417,1.69449 -0.59079,0.53466 -1.07417,1.29545 -1.07417,1.69066 0,0.39519 1.75224,2.0184 3.89386,3.60713 2.14163,1.58872 4.33953,3.38681 4.88423,3.99575 0.54469,0.60894 1.30108,0.98793 1.68086,0.8422 0.37977,-0.14574 1.20297,0.38653 1.82933,1.18282 0.62636,0.79628 1.13883,1.20515 1.13883,0.9086 0,-0.29655 2.71899,0.62894 6.0422,2.05665 7.29644,3.13466 14.284568,5.01318 22.022337,5.91995 3.311766,0.3881 5.488342,0.85916 5.102302,1.10426 -0.370277,0.2351 2.952091,0.39934 7.383036,0.36498 5.446321,-0.0422 7.447277,-0.204 6.17647,-0.4993 z m -3.565998,-16.32375 c 1.075108,-0.72959 1.954747,-1.15859 1.954747,-0.95334 0,0.20525 1.800677,-1.41548 4.001503,-3.60162 2.200827,-2.18613 3.905533,-4.13007 3.788235,-4.31986 -0.117295,-0.18979 2.819138,-3.34969 6.525413,-7.022 9.9668356,-9.87548 16.50879359,-17.24835 17.9104936,-20.18535 1.12118,-2.34921 1.28437,-3.70805 1.66733,-13.88287 0.38139,-10.13323 0.3351,-11.34696 -0.45582,-11.95013 -0.48417,-0.36924 -1.16706,-0.67135 -1.51752001,-0.67135 -1.66999,0 -1.90060999,1.60041 -2.00569999,13.91877 -0.0582,6.81851 -0.26976,12.41479 -0.4702,12.43619 -0.46639,0.0498 -5.807464,5.3787 -5.825815,5.81256 -0.02818,0.66615 -5.2112806,5.39512 -5.5461746,5.06023 -0.191378,-0.19137 -0.347961,0.0549 -0.347961,0.54718 0,0.49233 -0.204222,0.83472 -0.453822,0.76087 -0.249597,-0.0739 -1.542563,1.01375 -2.873261,2.41688 -1.33069,1.40314 -2.757868,2.57024 -3.171499,2.59356 -0.57525,0.0324 -0.58895,0.10784 -0.05828,0.32077 0.886214,0.35558 -0.177514,1.78516 -1.328319,1.78516 -0.42436,0 -0.632942,0.22429 -0.463524,0.49841 0.169423,0.27414 -0.182356,0.65407 -0.781727,0.8443 -0.599369,0.19024 -0.971114,0.53787 -0.82609,0.77252 0.319577,0.51709 -1.53388,2.28174 -2.194923,2.08975 -0.73738,-0.21416 -2.886916,1.13638 -2.886916,1.81383 0,0.33559 -0.399986,1.05215 -0.888868,1.59235 -0.708437,0.78282 -0.735692,0.98605 -0.13427,1.00123 0.449569,0.0113 0.292978,0.28271 -0.387385,0.67135 -0.628086,0.35878 -1.836528,1.49823 -2.685423,2.53212 -0.848891,1.03389 -2.088541,2.32131 -2.75478,2.86095 -0.666232,0.53964 -1.602172,1.372 -2.079864,1.84969 -0.799978,0.79998 -0.789154,0.89972 0.137171,1.2637 1.624349,0.63826 2.094238,0.54143 4.153252,-0.85585 z m 14.113547,-0.013 c 2.962854,-0.77173 4.178726,-1.62151 3.618052,-2.5287 -0.145639,-0.23565 0.21253,-0.42845 0.795933,-0.42845 0.615836,0 1.793465,-0.95739 2.807711,-2.28261 3.0950026,-4.04396 7.1345286,-7.92174 8.2609986,-7.93022 0.74887,-0.006 0.88077,-0.14267 0.41932,-0.43565 -1.03425,-0.65666 11.58799,-12.72969 13.1035104,-12.53337 1.43895,0.18641 4.9771,-1.25947 6.07751,-2.48361 1.44523,-1.60772 2.12493,-4.26064 1.58895,-6.20182 -0.5877,-2.12845 -2.65998,-4.21276 -4.36429,-4.38961 -3.5543904,-0.36884 -3.6778704,-0.46544 -0.96526,-0.75521 2.7483,-0.29358 2.97488,-0.42612 3.29323,-1.92652 0.18803,-0.88619 0.37416,-8.86189 0.41364,-17.72379 0.0395,-8.86189 0.25175,-16.39548 0.47174,-16.7413 0.21998,-0.34583 1.0629,-0.79516 1.87315,-0.99852 1.858,-0.46633 4.15544,-3.15068 4.15544,-4.85525 0,-2.44417 -1.74691,-5.54407 -3.46103,-6.14162 -2.02599,-0.70626 -7.28066,0.3386 -7.28066,1.44771 0,0.40536 -0.31319,0.8572 -0.69598,1.00409 -0.4476,0.17176 -0.62995,0.98035 -0.51095,2.26575 0.29125,3.14606 0.66324,4.48304 1.16162,4.17503 0.94691,-0.58523 1.10213,2.58252 0.99865,20.3812 -0.0832,14.31984 -0.17309,16.40626 -0.41625,9.66752 -0.35574,-9.85856 -0.53081,-9.58681 -0.69196,1.07416 l -0.11367,7.51919 -1.7823304,0.17104 c -1.87753,0.18018 -3.56932,1.30424 -4.48815,2.98201 -0.42288,0.77215 -0.3924,0.90715 0.1317,0.58324 0.51344,-0.31732 0.56332,-0.16745 0.20188,0.60655 -0.26403,0.5654 -0.511,2.79007 -0.54881,4.94372 -0.0622,3.53971 -0.21821,4.07252 -1.62528,5.5487 -0.85609,0.89813 -2.22117,2.02801 -3.03351001,2.51082 -0.81234,0.48281 -1.48252999,1.12784 -1.48930999,1.4334 -0.0171,0.77117 -18.4828576,19.08497 -19.2433206,19.08497 -0.543128,0 -0.850495,1.18349 -0.4822,1.85667 0.07385,0.13498 -0.349105,0.61068 -0.939898,1.05709 -1.357953,1.0261 -1.032685,1.03121 2.759824,0.0434 z m -24.438253,-4.52287 c 3.515619,-3.24585 4.812694,-4.12793 5.968709,-4.05903 1.608135,0.0958 1.834203,-0.24821 0.825751,-1.25666 -0.731078,-0.73108 -0.158765,-1.35582 18.560473,-20.26109 6.157624,-6.21882 11.4747596,-11.77954 11.8158546,-12.35716 0.347983,-0.58928 0.761172,-4.58606 0.94143,-9.10648 0.35773,-8.97087 1.50434,-13.2672 4.08186,-15.29468 1.57566999,-1.23942 2.3714,-1.39119 2.17616999,-0.41504 -0.20811,1.04052 4.41345001,0.62561 5.96916001,-0.5359 0.7232,-0.53995 1.40283,-1.55783 1.51029,-2.26196 0.10745,-0.70413 0.43482,-1.56875 0.72747,-1.92137 0.35934,-0.43297 0.27092,-1.14417 -0.2723,-2.1905 -0.44242,-0.85214 -0.66078,-2.00257 -0.48525,-2.55651 0.2084,-0.65762 0.1128,-0.87961 -0.27547,-0.63965 -0.32704,0.20212 -0.59462,0.13028 -0.59462,-0.15964 0,-0.84836 -3.61988,-1.80063 -5.37739,-1.41462 -0.88774,0.19498 -1.48604001,0.56168 -1.32955001,0.81489 0.15648,0.2532 -0.0451,0.65649 -0.44786,0.89619 -1.43711999,0.8552 -2.63831999,3.36472 -2.39712999,5.00803 0.20766,1.41489 -0.24027,2.11279 -3.534056,5.50612 l -3.771858,3.88587 -0.151244,9.66752 -0.151241,9.66751 -2.3650466,2.41689 c -1.300781,1.32928 -4.339121,4.33663 -6.75187,6.68299 -2.412749,2.34637 -6.369965,6.33422 -8.793811,8.8619 -2.423853,2.52767 -7.154632,7.25434 -10.512843,10.5037 -3.358216,3.24936 -7.063845,6.99232 -8.234727,8.31769 -1.170887,1.32537 -2.527401,2.41296 -3.014483,2.41688 -1.033716,0.008 -2.387298,2.50545 -1.960692,3.61717 0.634024,1.65224 3.329882,0.33493 7.844274,-3.83306 z m -9.129307,-5.23818 c 3.35602,-3.44674 7.755522,-7.85755 9.776676,-9.80179 2.02115,-1.94425 5.679168,-5.58934 8.128934,-8.10021 2.449759,-2.51087 5.634331,-5.77365 7.076827,-7.25063 5.173905,-5.29762 7.551025,-7.19037 8.664686,-6.89914 1.882272,0.49222 4.390763,-1.28881 5.517538,-3.91748 1.330913,-3.1049 1.30982,-3.97654 -0.166388,-6.87518 -1.702504,-3.34299 -5.26433,-4.01663 -9.264706,-1.75222 -2.137687,1.21004 -2.148832,1.23329 -2.247699,4.69066 -0.07119,2.4892 0.120904,3.64492 0.677313,4.07523 0.675685,0.52255 0.671914,0.68759 -0.029,1.2693 -0.443116,0.36775 -0.700045,0.83954 -0.570957,1.04841 0.29319,0.4744 -8.569209,9.16604 -9.346113,9.16604 -0.312367,0 -0.567944,0.26153 -0.567944,0.58118 0,0.31964 -1.027173,1.70059 -2.282608,3.06876 -4.489423,4.89259 -22.1896,22.4246 -23.99819,23.77018 -2.33552,1.73763 -2.01967,3.19369 0.69278,3.19369 1.63769,0 2.49905,-0.67994 7.938851,-6.2668 z m -37.474411,4.07948 c 0.77833,-0.61223 1.41514,-0.95306 1.41514,-0.75739 0,0.19566 0.93646,-0.81397 2.08101,-2.24363 1.91365,-2.39033 9.67515,-10.09752 14.83715,-14.73334 1.18158,-1.06114 3.88514,-3.77847 6.0079,-6.0385 2.38069,-2.53466 4.14842,-3.99831 4.61344,-3.81987 0.83617,0.32087 2.12429,-0.93248 1.88472,-1.83383 -0.1722,-0.64786 16.063234,-17.31233 16.676591,-17.11728 0.216252,0.0688 1.915689,-1.19756 3.77652,-2.81405 1.860836,-1.6165 3.099385,-3.03374 2.752331,-3.14942 -0.363009,-0.121 0.216876,-1.07863 1.365377,-2.2548 1.2388,-1.26865 2.304348,-1.92629 2.807967,-1.73304 0.540163,0.20728 0.722728,0.0583 0.545883,-0.4455 -0.388625,-1.10708 3.530753,-4.78507 5.099121,-4.78507 2.356678,0 4.702771,-1.15697 5.509482,-2.71698 1.187794,-2.29694 0.95962,-4.05757 -0.777885,-6.00217 -1.345925,-1.50635 -1.921227,-1.754 -4.074634,-1.754 -2.024954,0 -2.735265,0.26487 -3.691413,1.37645 -0.65119,0.75705 -1.583778,1.52987 -2.072415,1.71739 -0.742355,0.28486 -0.79782,0.63258 -0.337302,2.11459 0.303125,0.97552 0.679998,2.19429 0.837494,2.70838 0.200305,0.65386 -0.821397,2.0101 -3.400256,4.51361 -11.085621,10.76174 -15.23392,14.87764 -15.23392,15.11492 0,0.14541 -1.595548,1.83656 -3.54566,3.7581 -2.810224,2.76905 -3.656241,3.33837 -4.078801,2.74475 -0.4337,-0.60926 -0.48308,-0.59015 -0.26475,0.10241 0.17379,0.55133 -1.0298,2.11288 -3.41522,4.43095 -2.02597,1.96877 -3.87929,3.57958 -4.11849,3.57958 -0.23919,0 -0.67347,0.5438 -0.96507,1.20844 -0.29159,0.66464 -0.83228,1.23865 -1.20152,1.27557 -0.36925,0.0369 -0.91305,0.0974 -1.20844,0.13427 -0.2954,0.0369 -0.47667,0.36925 -0.40282,0.73849 0.0761,0.38052 -0.33107,0.63039 -0.93989,0.57679 -1.05886,-0.0932 -1.05931,-0.0836 -0.0316,0.67136 0.5734,0.42126 0.77817,0.76592 0.45504,0.76592 -0.32313,0 -2.74322,2.11477 -5.37797,4.69949 -12.9133,12.66805 -15.59729,15.17263 -16.25955,15.17263 -0.39427,0 -0.55148,0.16538 -0.34935,0.3675 0.20213,0.20213 -0.39378,1.15295 -1.32424,2.11294 -2.772381,2.86036 -0.75501,4.80083 2.40605,2.31434 z m 29.88061,-5.95513 c 0,-0.27389 0.34669,-0.42697 0.77041,-0.34017 0.42373,0.0868 0.77038,-0.0418 0.77035,-0.28568 -3e-5,-0.24392 0.49919,-0.87648 1.10938,-1.4057 0.80278,-0.69625 1.111724,-1.61288 1.117677,-3.31611 0.0081,-2.30699 0.610058,-3.9574 1.449171,-3.97297 0.232322,-0.004 1.721903,-1.38935 3.310181,-3.07786 1.58828,-1.6885 3.098831,-2.93957 3.356776,-2.78015 0.25795,0.15942 0.468998,-0.0473 0.468998,-0.45936 0,-0.41207 0.90633,-1.6026 2.014067,-2.64563 1.107736,-1.04303 2.449343,-2.53418 2.98134,-3.31367 1.218806,-1.78579 4.642536,-3.55948 6.870835,-3.55948 3.636399,0 5.480418,-4.83939 3.172122,-8.32481 -0.586899,-0.88619 -1.087763,-2.09463 -1.113034,-2.68542 -0.02527,-0.59079 -0.165491,-0.77912 -0.311605,-0.41851 -0.180448,0.44535 -1.001995,0.55474 -2.561172,0.34103 -1.927495,-0.26419 -2.662055,-0.0721 -4.58185,1.1984 -2.151153,1.42356 -2.27017,1.63365 -2.012752,3.55283 0.150477,1.12189 0.05491,2.0398 -0.212383,2.0398 -0.267288,0 -0.485976,0.48338 -0.485976,1.07417 0,0.59079 -0.513588,1.58776 -1.141304,2.21548 -0.627719,0.62771 -1.141304,1.70193 -1.141304,2.38714 0,0.85171 -1.385449,2.59813 -4.379397,5.52046 -3.656026,3.56855 -4.605999,4.2313 -5.751282,4.01237 -1.004308,-0.19199 -1.371878,-0.0342 -1.371878,0.58887 0,0.46812 0.231,0.85113 0.51333,0.85113 0.28234,0 0.21246,0.36253 -0.15527,0.80563 -0.36774,0.44309 -0.87313,0.80562 -1.12308,0.80562 -0.24995,0 -0.31535,-0.36253 -0.14532,-0.80562 0.38039,-0.99127 -1.40733,-1.09565 -3.16984,-0.18507 -0.66063,0.34131 -1.56368,0.7906 -2.00678,0.99843 -0.44309,0.20783 -0.7507,0.52731 -0.68356,0.70995 0.0671,0.18264 -0.47666,0.9308 -1.20844,1.66257 -0.73178,0.73178 -1.33051,1.71829 -1.33051,2.19224 0,0.47396 -0.24168,0.71237 -0.53708,0.52981 -1.04199,-0.64399 -0.5512,2.70665 0.50832,3.47031 0.57497,0.41441 0.94016,0.92376 0.81154,1.13188 -0.60693,0.98203 3.43591,2.6937 5.25942,2.22676 0.51695,-0.13238 0.9399,-0.46478 0.9399,-0.73867 z m -32.951,-8.80838 c 4.38712,-4.30122 8.53492,-8.04693 9.21734,-8.3238 0.68241,-0.27687 1.11483,-0.70715 0.96093,-0.95618 -0.27782,-0.44952 8.04769,-8.81983 14.62381,-14.70251 3.01189,-2.69428 3.5266,-2.97289 4.21689,-2.2826 0.43244,0.43244 1.31278,0.77643 1.95633,0.76443 1.30551,-0.0244 5.36127,-3.19574 4.10375,-3.2089 -0.4884,-0.005 -0.57238,-0.15742 -0.22211,-0.40282 0.30978,-0.21702 0.85358,-1.38938 1.20844,-2.60524 0.771875,-2.64462 0.796876,-3.04878 0.16441,-2.65789 -0.26445,0.16344 -0.61886,-0.0626 -0.78759,-0.50231 -0.42876,-1.11732 -3.56617,-2.93886 -5.17662,-3.00548 l -1.34271,-0.0556 1.34271,-0.43001 c 0.81196,-0.26004 0.98855,-0.45117 0.44674,-0.48355 -1.41986,-0.0848 -2.62161,0.54319 -2.23534,1.16818 0.22401,0.36246 0.0152,0.44222 -0.57,0.21768 -0.60171,-0.2309 -1.38107,0.10312 -2.23644,0.95848 -1.09149,1.0915 -1.31289,1.83967 -1.31289,4.43673 v 3.12385 l -4.84878,4.82256 c -3.36876,3.35055 -5.17207,4.77127 -5.90793,4.65453 -0.67402,-0.10693 -1.05914,0.13719 -1.05914,0.67136 0,0.46166 -0.3768,0.83939 -0.83733,0.83939 -0.46053,0 -0.68795,0.24168 -0.50538,0.53708 0.18256,0.2954 0.076,0.53708 -0.23685,0.53708 -0.31283,0 -0.56878,0.49765 -0.56878,1.10587 0,0.65504 -0.23645,0.95973 -0.58001,0.7474 -0.55556,-0.34336 -2.48337,1.8082 -2.25561,2.5174 0.0605,0.1884 -3.95433,4.2971 -8.92187,9.13044 -8.226155,8.00394 -8.983645,8.8957 -8.491185,9.99634 0.29738,0.66464 0.84173,1.20844 1.20966,1.20844 0.36794,0 4.258434,-3.51919 8.645555,-7.8204 z m -14.983785,-1.61235 c 0.51694,-0.46166 2.5511,-2.45559 4.52036,-4.43094 1.96925,-1.97536 4.386134,-4.39761 5.370844,-5.38278 0.98471,-0.98517 3.11967,-3.04423 4.744351,-4.57569 1.62468,-1.53147 8.35189,-8.03647 14.94935,-14.45558 10.00376,-9.73333 12.25259,-11.67111 13.54453,-11.67111 1.09154,0 1.46567,-0.2175 1.26658,-0.73632 -0.1554,-0.40498 0.10919,-0.88665 0.58798,-1.07037 0.4788,-0.18374 0.73043,-0.56076 0.55919,-0.83783 -0.17123,-0.27707 -0.0657,-0.65558 0.2345,-0.84112 0.30022,-0.18554 0.54585,-0.0814 0.54585,0.23143 0,0.31283 0.19677,0.56879 0.43726,0.56879 0.2405,0 0.39358,-0.78549 0.34017,-1.74553 -0.0534,-0.96004 -0.13955,-2.59143 -0.19145,-3.62532 -0.0758,-1.50929 -0.4621,-2.11424 -1.96012,-3.06928 -3.05063,-1.94488 -5.80427,-2.57304 -7.74872,-1.76761 -0.91262,0.37802 -1.56252,0.95632 -1.44422,1.28512 0.1183,0.32879 -0.13983,1.29986 -0.57362,2.15792 -1.04257,2.06225 -0.54408,4.93943 1.16482,6.72314 l 1.34323,1.40202 -5.26048,5.2289 c -2.89326,2.8759 -5.46088,5.0471 -5.70584,4.82489 -0.24495,-0.22221 -0.29776,-0.14438 -0.11735,0.17295 0.18041,0.31734 -1.72001,2.49253 -4.22317,4.83376 -2.50315,2.34124 -8.93972,8.66405 -14.303495,14.05071 -5.36376,5.38665 -9.85932,9.68689 -9.99013,9.55608 -0.13081,-0.1308 -0.66176,0.2857 -1.17989,0.92557 -1.7901,2.21067 0.92178,4.1841 3.08947,2.2482 z m -4.63096,-9.43679 c 1.73469,-1.81174 3.1693,-3.0806 3.18802,-2.81969 0.0187,0.26092 0.25837,-0.0849 0.53254,-0.76855 0.28613,-0.71343 0.75367,-1.08524 1.09747,-0.87276 0.42112,0.26026 0.38259,0.50728 -0.12973,0.83191 -0.56024,0.35498 -0.5696,0.46362 -0.0405,0.46994 1.46315,0.0175 1.19641,-1.73212 -1.03781,-6.80728 -1.27573,-2.89789 -2.25845,-5.46311 -2.18381,-5.70048 0.0746,-0.23737 -0.23114,-0.79843 -0.67951,-1.2468 -0.44837,-0.44837 -0.8431,-1.34175 -0.87717,-1.9853 -0.0341,-0.64354 -0.11811,-1.41176 -0.18674,-1.70716 -0.0686,-0.29539 -0.16529,-1.02046 -0.21481,-1.61125 -0.0685,-0.81735 -0.20037,-0.90003 -0.55154,-0.34582 -0.30078,0.47468 -0.44772,0.007 -0.42192,-1.34271 0.0218,-1.13909 -0.36839,-2.91697 -0.86702,-3.95085 -1.32375,-2.74473 -1.99096,-6.91573 -1.36896,-8.55793 0.84626,-2.23425 2.64696,-3.84628 3.90552,-3.49628 0.71841,0.19978 0.87398,0.14343 0.44088,-0.15968 -0.89145,-0.6239 3.28121,-4.88289 5.19807,-5.30561 2.78127,-0.61334 3.29534,-0.84138 4.85479,-2.15357 2.01139,-1.69247 2.568414,-4.30355 1.40005,-6.5629 -1.04335,-2.01763 -2.49767,-2.87301 -5.68135,-3.34155 l -2.41688,-0.35569 2.39002,-0.0718 c 1.77077,-0.0532 2.23343,-0.22836 1.78564,-0.67614 -0.95428,-0.95429 -4.42747,-0.0321 -6.07173,1.61219 -1.37646,1.37646 -1.46487,1.7526 -1.44896,6.16515 l 0.0169,4.69926 -2.07028,2.12015 c -1.13865,1.16609 -2.28744,2.12016 -2.55287,2.12016 -0.52568,0 -0.0567,-6.26693 0.76362,-10.2046 0.91702,-4.40175 2.76414,-10.1804 3.17329,-9.92753 0.22152,0.13691 1.04857,-1.11502 1.83788,-2.78206 1.58614,-3.34999 5.95286,-9.31087 6.8208,-9.31087 0.30439,0 -0.0723,0.74361 -0.83702,1.65246 -0.76475,0.90885 -1.39045,2.02666 -1.39045,2.48402 0,1.41899 2.92879,0.40938 5.00047,-1.72377 1.601404,-1.6489 2.409514,-2.01341 5.546494,-2.50179 2.756401,-0.42913 4.118961,-0.41005 5.464611,0.0766 2.08317,0.75328 2.20553,0.68675 2.36896,-1.28803 0.0833,-1.00632 0.6014,-1.73016 1.61277,-2.25316 0.81954,-0.4238 1.49007,-1.08165 1.49007,-1.46189 0,-0.879715 2.92957,-3.708405 4.16524,-4.021805 2.35638,-0.59764 8.1877,-0.68967 8.1877,-0.1292 0,1.02987 3.41619,2.7175 5.50512,2.71959 1.10773,0.001 2.01406,-0.23968 2.01406,-0.53508 0,-0.2954 0.46911,-0.53708 1.04247,-0.53708 0.57336,0 1.19185,-0.24169 1.37441,-0.53709 0.44355,-0.71767 1.34271,-0.6854 1.34271,0.0482 0,0.74349 2.19574,2.595765 3.10509,2.619375 0.37852,0.01 0.81534,0.34915 0.97072,0.75405 0.39464,1.02841 4.897268,0.48751 6.748793,-0.81074 0.784087,-0.549795 1.629997,-1.001475 1.879793,-1.003745 0.249798,-0.002 1.008856,-0.9754 1.686795,-2.16249 1.457926,-2.55287 5.409031,-5.6393 6.202889,-4.84544 0.348171,0.34817 0.784857,0.214 1.274379,-0.39154 0.681919,-0.84354 0.717878,-0.82313 0.426508,0.24203 -0.175008,0.63979 -0.06668,1.31869 0.240734,1.50868 0.307414,0.19 0.558932,0.002 0.558932,-0.41803 0,-0.41991 0.725065,-1.67585 1.611252,-2.79097 0.88619,-1.11513 1.607553,-2.65891 1.603031,-3.43063 -0.0067,-1.13985 -0.115612,-1.25196 -0.580528,-0.59751 -0.443145,0.62382 -0.501911,0.48159 -0.2604,-0.63024 0.585883,-2.69721 -2.532165,-5.27023 -7.355313,-6.06963 l -2.027986,-0.33612 2.752031,-1.851983 c 1.513615,-1.018585 3.030435,-1.692778 3.370702,-1.49819 0.340265,0.19458 0.467844,0.184348 0.283501,-0.02273 -0.184338,-0.207084 0.287941,-1.08662 1.049512,-1.954514 0.989621,-1.127797 1.504286,-1.389713 1.803921,-0.918033 0.285057,0.448723 0.421884,0.329682 0.427477,-0.371911 0.0085,-1.071483 1.447371,-2.996253 2.239801,-2.996253 0.249611,0 0.453843,1.055 0.453843,2.344449 0,1.518187 0.372371,2.817844 1.056579,3.68767 0.581115,0.73877 0.883224,1.519404 0.671356,1.734743 -0.211876,0.215342 -0.0227,0.330422 0.420402,0.255752 0.443095,-0.07467 1.240102,0.0535 1.771123,0.28477 1.545765,0.67328 5.269619,-0.0711 6.49823,-1.298997 0.896803,-0.896271 1.148615,-1.865268 1.221756,-4.701477 0.101037,-3.917799 -0.243713,-3.429378 6.855759,-9.712838 1.721043,-1.523225 2.037644,-2.170496 2.298655,-4.699487 0.166492,-1.613122 0.510585,-2.963158 0.764654,-3.000084 1.012113,-0.147092 1.3003176,-0.249695 2.1136996,-0.752514 0.465373,-0.287684 0.994392,-0.92727 1.175597,-1.421302 0.181208,-0.494033 0.869117,-0.977408 1.528683,-1.074169 1.561985,-0.229148 2.005625,-1.51864 0.522481,-1.51864 -0.75492,0 -1.118926,-0.343958 -1.118926,-1.057314 0,-0.752745 -0.24992,-0.961409 -0.867605,-0.724376 -0.687875,0.263961 -0.792414,0.09603 -0.504643,-0.810655 0.288864,-0.910148 2.7e-5,-1.364853 -1.415005,-2.227572 -3.3834906,-2.062855 -7.5085406,-1.112491 -8.5238076,1.963796 -0.672156,2.036654 -0.172935,7.343026 0.643368,6.838521 0.634453,-0.392107 2.161937,0.812213 1.791129,1.41219 -0.149267,0.241517 -0.02024,0.594341 0.28674,0.784056 1.776997,1.098248 -6.061224,9.300837 -9.290762,9.722657 -0.947648,0.123777 -2.352977,0.329808 -3.122951,0.457848 -1.257552,0.209118 -1.378405,0.0855 -1.188064,-1.215345 0.116549,-0.796486 0.284446,-2.052373 0.373113,-2.790865 0.08867,-0.738489 0.584261,-2.157558 1.101323,-3.153479 0.651613,-1.255085 0.836998,-2.408819 0.604107,-3.759591 -0.259723,-1.506424 -0.199692,-1.765938 0.264451,-1.143193 0.477327,0.640434 0.53658,0.511524 0.288951,-0.628679 -0.344712,-1.587193 0.101397,-3.270465 0.759034,-2.86402 0.232021,0.143397 0.845929,-0.64348 1.364248,-1.748612 0.518313,-1.105133 1.934546,-3.202633 3.147181,-4.66112 1.212639,-1.458484 2.204797,-2.826298 2.204797,-3.039591 0,-0.700191 2.931313,-2.710821 3.468296,-2.378946 0.288586,0.178356 0.832432,-0.168473 1.208548,-0.770726 0.376115,-0.602255 1.048662,-1.096857 1.494549,-1.099111 0.445889,-0.0024 2.381676,-0.500057 4.3017516,-1.106228 3.720111,-1.174438 15.807501,-1.966071 16.360381,-1.071488 0.15974,0.258466 1.52968,0.640371 3.0443104,0.84869 1.87703,0.258154 2.51812,0.528072 2.01347,0.847717 -0.50455,0.319572 -0.14158,0.472022 1.13938,0.478568 1.18318,0.006 3.03421,0.70571 4.99493,1.888019 1.71332,1.033132 3.41744,1.878415 3.78693,1.878415 0.36949,0 1.74181,-1.067776 3.04961,-2.372844 1.30779,-1.30506 2.62478,-2.233062 2.92662,-2.062226 0.30185,0.170836 0.38211,0.12529 0.17835,-0.101209 -0.20376,-0.226504 0.0984,-0.915045 0.67135,-1.530093 1.48425,-1.593159 1.29046,-2.972544 -0.56603,-4.028941 -0.88432,-0.503205 -1.60938,-1.217027 -1.61125,-1.586272 -0.003,-0.616064 -0.82891,-0.879729 -2.55455,-0.815644 -0.36925,0.01373 -0.67135,-0.278371 -0.67135,-0.649071 0,-0.370707 -1.86583,-1.371025 -4.14627,-2.222934 -2.28044,-0.851908 -4.36843,-1.640702 -4.63997,-1.752872 -0.27155,-0.11217 -0.30897,0.09499 -0.0832,0.460351 0.28994,0.469133 0.11466,0.571164 -0.5966,0.34729 -2.16416,-0.681189 -6.9358004,-1.413897 -9.8080804,-1.50608 -2.91923,-0.09369 -2.88707,-0.107664 1.0132,-0.440325 3.44236,-0.293603 3.01279,-0.346554 -2.95396,-0.364109 -4.83438,-0.01423 -6.32127,0.110331 -4.83376,0.404929 1.63847999,0.324501 1.19234999,0.383741 -1.8798,0.249626 -3.319968,-0.144933 -4.944761,0.112803 -9.2420576,1.466035 -3.035162,0.955781 -5.074359,1.867713 -4.879922,2.18231 0.202685,0.327949 -0.03455,0.399005 -0.603371,0.180721 -0.996728,-0.382479 -3.235783,0.834948 -2.636957,1.433775 0.195054,0.195053 -0.410707,0.354642 -1.346126,0.354642 -0.935423,0 -1.700768,0.235479 -1.700768,0.523293 0,0.287811 -0.735753,0.903761 -1.635003,1.368784 -0.899253,0.465019 -2.047269,1.523411 -2.551152,2.351975 -0.503881,0.828566 -1.072042,1.481479 -1.262573,1.450906 -0.737804,-0.118356 -2.607538,2.04235 -2.607538,3.013329 0,0.562446 -0.225935,0.882994 -0.502078,0.712324 -0.9925,-0.613399 -4.955813,5.762165 -4.456856,7.169497 0.145491,0.410358 0.02683,0.599204 -0.263697,0.41965 -0.654164,-0.404294 -1.759466,1.915819 -1.759466,3.693261 0,0.724593 -0.238837,1.317442 -0.530754,1.317442 -0.291915,0 -0.495308,0.422952 -0.451988,0.939898 0.158993,1.897245 -0.103399,3.412773 -0.543751,3.140623 -0.597982,-0.369576 -3.491417,5.928696 -3.051013,6.641285 0.187769,0.303815 -0.27645,0.833908 -1.031595,1.177975 -0.755152,0.344067 -1.372997,0.813559 -1.372997,1.043308 0,0.916963 -3.265574,3.916269 -4.936606,4.534082 -6.459307,2.388134 -8.572767,2.954282 -14.747007,3.950375 -10.43348,1.683239 -13.9066,2.512549 -13.72793,3.277944 0.10086,0.432025 -0.17191,0.543335 -0.7695,0.314018 -1.00757,-0.386644 -9.23291,2.634244 -10.13606,3.722634 -0.67012,0.80756 -8.068851,4.57095 -9.545445,4.85531 -0.59036,0.1137 -2.06899,1.24578 -3.28583,2.51575 -1.21685,1.26997 -2.6929,2.35031 -3.28012,2.40074 -1.35458,0.11636 -7.24414,5.59568 -7.24414,6.73956 0,0.47178 -0.61667,1.34287 -1.37039,1.93575 -0.75372,0.59287 -1.35794,1.27505 -1.34271,1.51596 0.0152,0.2409 -0.21401,0.43801 -0.5094,0.43801 -0.2954,0 -0.53709,0.18126 -0.53709,0.40281 0,0.22155 -0.49219,0.895005 -1.09376,1.496575 -0.60156,0.60157 -0.94983,1.32664 -0.77393,1.61126 0.17591,0.28462 0.003,0.52425 -0.38322,0.53253 -1.80127,0.0385 -8.4665,14.44621 -8.81351,19.05145 -0.089,1.18159 -0.43666,5.41113 -0.77251,9.39898 -0.36378,4.31956 -0.44986,9.63893 -0.21294,13.15857 0.21873,3.24936 0.45754,6.82878 0.53068,7.95427 0.22082,3.39788 0.79289,5.74138 1.40154,5.74138 0.32223,0 0.4638,0.58358 0.32179,1.32646 -0.1554,0.8129 -0.0429,1.19626 0.29053,0.99018 0.33406,-0.20646 0.42623,0.11447 0.23877,0.83133 -0.17421,0.66618 0.0201,1.49304 0.45248,1.92541 0.4168,0.4168 0.75782,1.35954 0.75782,2.09497 0,1.79306 0.53977,3.09798 1.13044,2.73293 0.26445,-0.16344 0.48081,-0.0412 0.48081,0.27162 0,0.31283 -0.28788,0.56879 -0.63974,0.56879 -0.39592,0 -0.32517,0.25586 0.18563,0.67135 0.45396,0.36925 1.13369,1.45684 1.51053,2.41688 0.37683,0.96004 0.89752,1.74553 1.15708,1.74553 0.25956,0 0.47192,0.49764 0.47192,1.10586 0,0.70757 0.22632,0.966 0.62836,0.71752 0.42046,-0.25986 0.51669,-0.0974 0.29085,0.49119 -0.18569,0.48388 -0.0204,1.06711 0.3674,1.29654 0.8039,0.47558 2.22156,2.89961 2.05,3.50526 -0.0627,0.22154 0.14185,0.40281 0.45468,0.40281 0.31283,0 0.41941,0.24169 0.23685,0.53708 -0.18257,0.2954 0.0757,0.53709 0.57392,0.53709 0.49822,0 2.32514,-1.48234 4.05982,-3.29409 z m 9.06191,-10.09372 c 0,-0.78748 8.630654,-9.64627 9.741265,-9.99877 0.55023,-0.17464 1.00043,-0.6495 1.00043,-1.05526 0,-1.07059 0.94325,-1.50044 4.28306,-1.95184 2.38649,-0.32255 3.26898,-0.73773 4.50684,-2.12026 1.37496,-1.53564 1.50317,-1.98313 1.20106,-4.19212 -0.18601,-1.36014 -0.57807,-2.55403 -0.87125,-2.65311 -0.29318,-0.0991 -0.41729,-0.36745 -0.27581,-0.59639 0.44525,-0.72042 -3.74631,-2.26696 -5.64806,-2.08394 -2.48873,0.23952 -4.27001,2.88105 -4.27001,6.33215 0,2.33119 -0.22624,2.74423 -3.222511,5.88331 -1.77238,1.85685 -3.222514,3.56494 -3.222514,3.79574 0,0.2308 -0.50131,0.55074 -1.11402,0.71097 -0.61272,0.16023 -1.24442,0.78992 -1.40378,1.39931 -0.15936,0.60939 -0.48447,0.98764 -0.72246,0.84054 -0.56681,-0.3503 -2.22071,1.31044 -1.87006,1.8778 0.14872,0.24063 -0.0908,0.57609 -0.53215,0.74547 -0.80567,0.30916 -1.11441,2.5362 -0.44448,3.20613 0.54194,0.54194 2.86445,0.42865 2.86445,-0.13973 z m 0.48923,-15.61475 c 3.264854,-3.24936 6.057024,-5.90793 6.204824,-5.90793 0.1478,0 1.51976,-1.3199 3.048821,-2.93312 1.52905,-1.61321 2.95171,-2.82705 3.16147,-2.69741 0.20977,0.12964 1.44037,-1.09692 2.73469,-2.72567 1.29431,-1.62876 2.91728,-3.33399 3.60659,-3.78938 2.09262,-1.38248 2.79121,-4.01543 3.09065,-11.6483 0.44314,-11.29592 0.76881,-12.19077 4.4368,-12.19077 2.54553,0 4.13475,-1.12714 4.91267,-3.48428 0.75444,-2.28597 0.35015,-3.6857 -1.81991,-6.30095 -1.73069,-2.08573 -3.53579,-2.537665 -5.96558,-1.49354 -1.02308,0.43963 -1.02535,0.46338 -0.0478,0.49933 0.79525,0.0293 0.57742,0.37035 -0.96735,1.51473 l -1.99374,1.47699 0.28079,3.41034 c 0.20719,2.51635 0.0826,3.60858 -0.47538,4.16653 -0.53614,0.53614 -0.86431,0.58122 -1.12778,0.15492 -0.20437,-0.33069 -0.0385,-0.81221 0.36857,-1.07006 0.5959,-0.37744 0.56817,-0.47042 -0.14227,-0.47704 -0.48534,-0.005 -0.98894,0.29389 -1.1191,0.66313 -0.13017,0.36925 -0.27635,5.14259 -0.32484,10.60742 -0.0748,8.43043 -0.21253,9.96278 -0.90885,10.11238 -0.45137,0.097 -0.75401,0.57069 -0.67252,1.0527 0.0874,0.5172 -0.47291,1.17987 -1.36726,1.61692 -0.83348,0.40731 -2.40445,1.71638 -3.49105,2.90905 -1.0866,1.19266 -2.40055,2.56089 -2.91989,3.0405 -1.643731,1.51799 -4.539241,4.54418 -6.872595,7.18277 -1.24081,1.40313 -2.47431,2.55115 -2.74111,2.55115 -0.2668,0 -1.2297,0.84806 -2.13977,1.88458 -0.91008,1.03652 -2.18244,2.01704 -2.82747,2.17893 -1.69445,0.42528 -2.63679,2.1351 -1.91748,3.47914 0.31581,0.5901 0.42791,1.30959 0.24912,1.59889 -0.17879,0.28929 0.15546,0.52598 0.74278,0.52598 0.64126,0 3.4392,-2.3601 7.00395,-5.90793 z m -7.74334,-3.74866 c 0.1856,-0.58479 1.28291,-1.62704 2.43846,-2.31613 1.15556,-0.68909 2.84051,-2.27374 3.74435,-3.52146 0.90384,-1.24771 2.23505,-2.53816 2.95825,-2.86767 0.7232,-0.32951 1.45668,-1.04581 1.62996,-1.59178 0.173294,-0.54596 0.675574,-0.99266 1.116194,-0.99266 0.44063,0 0.66319,-0.22321 0.49458,-0.49602 -0.1686,-0.27281 0.425,-1.01692 1.31912,-1.65359 2.719451,-1.93643 3.220721,-3.55715 3.220721,-10.4135 0,-6.04713 0.25668,-7.00739 1.87979,-7.03225 1.16774,-0.0179 2.35162,-5.70612 1.46876,-7.057 -0.62031,-0.94914 -4.0526,-2.88306 -5.120751,-2.88527 -1.73897,-0.004 -3.95734,1.51854 -4.848544,3.32689 -0.48069,0.97537 -0.87949,1.45702 -0.88622,1.07035 -0.007,-0.38668 -0.25391,-0.55368 -0.54931,-0.37112 -1.33872,0.82737 -0.0251,5.1023 1.56789,5.1023 0.35411,0 0.48448,0.25786 0.28971,0.57301 -0.21125,0.3418 0.0348,0.50433 0.609854,0.40281 2.61372,-0.46145 3.09628,7.48776 0.7791,12.83431 -1.14832,2.64959 -4.324974,5.87871 -5.060064,5.14363 -0.18415,-0.18416 -0.33483,-0.0507 -0.33483,0.29665 0,0.82583 -2.89217,3.84422 -3.68346,3.84422 -0.33727,0 -0.55279,0.20423 -0.47894,0.45385 0.19917,0.67321 -4.59976,5.26481 -5.95065,5.69357 -1.17223,0.37205 -1.63036,1.37176 -0.62863,1.37176 0.29539,0 0.53708,-0.28197 0.53708,-0.6266 0,-1.06351 0.70865,0.018 0.85065,1.29822 0.0737,0.6645 0.15414,1.2686 0.17876,1.34245 0.0246,0.0738 0.51185,0.13427 1.08273,0.13427 0.57089,0 1.18984,-0.47846 1.37544,-1.06324 z m 56.929568,-0.68229 c -0.131821,-0.36924 2.626408,-3.63203 6.129401,-7.25063 5.042633,-5.20906 6.689992,-6.59585 7.909991,-6.65881 2.905212,-0.14993 3.154635,-0.2004 4.355039,-0.88128 3.638926,-2.06405 3.786854,-9.65735 0.206714,-10.61071 -2.85382,-0.75995 -4.477168,-0.75026 -5.997213,0.0358 -2.176036,1.12528 -2.751307,2.50244 -2.570374,6.15329 l 0.1567,3.16183 -6.051545,5.99426 c -3.57291,3.53909 -6.348053,5.88048 -6.775476,5.71646 -0.52496,-0.20145 -0.73155,0.27361 -0.75163,1.7284 -0.0247,1.78893 0.15756,2.06715 1.68278,2.56897 0.940758,0.30952 1.763303,0.59674 1.82788,0.63828 0.06457,0.0415 0.0096,-0.22659 -0.122267,-0.59584 z m 66.334773,-4.25191 c 0,-1.52621 -0.13924,-2.63569 -0.30943,-2.46551 -0.4981,0.49809 -0.46109,5.24044 0.0409,5.24044 0.1477,0 0.26854,-1.24872 0.26854,-2.77493 z m 49.41176,-2.05883 c -1.05181,-0.67973 -1.7628,-0.67973 -1.34271,0 0.18257,0.2954 0.74063,0.53339 1.24014,0.52887 0.78268,-0.007 0.79686,-0.0802 0.10257,-0.52887 z m -52.5676204,-7.6624 c -0.53044,-0.52648 -0.59213,-0.46479 -0.30066,0.30066 0.20169,0.52968 0.50201,0.82776 0.66737,0.6624 0.16536,-0.16536 2.6e-4,-0.59873 -0.36671,-0.96306 z m -74.4836056,-0.61849 c -1.12496,-0.82259 -1.63475,-0.73221 -1.06548,0.1889 0.19471,0.31505 0.74848,0.57281 1.2306,0.57281 0.7331,0 0.70608,-0.12468 -0.16512,-0.76171 z m 4.84767,-0.81694 c 1.17658,-2.27524 2.86852,-3.25395 5.641482,-3.26333 2.192761,-0.007 4.099581,-0.5846 3.719869,-1.12599 -0.08043,-0.11468 0.272511,-0.84757 0.784305,-1.62867 0.511791,-0.7811 1.072303,-2.35207 1.245579,-3.49105 0.338185,-2.22297 2.130838,-4.66885 3.019417,-4.11967 0.307943,0.19032 0.376507,0.0672 0.158774,-0.2851 -0.210773,-0.34104 -0.155459,-0.62007 0.122917,-0.62007 0.278376,0 0.621123,-0.43968 0.761651,-0.97706 0.140528,-0.53739 1.135464,-1.39463 2.210977,-1.90499 2.157434,-1.02378 2.365624,-1.66421 1.119391,-3.44346 -1.252868,-1.78871 -4.534765,-1.47671 -4.534765,0.43112 0,1.31453 -0.553894,2.67189 -1.090319,2.67189 -0.241064,0 -1.191646,0.75333 -2.11239,1.67408 -1.3915,1.3915 -1.954253,1.61805 -3.333851,1.34213 -0.912871,-0.18257 -2.572509,-0.0585 -3.688083,0.27575 -2.712774,0.81277 -4.194064,3.76832 -3.244474,6.47352 0.58135,1.65616 0.51966,1.86767 -0.8747,2.99895 -4.02672,3.26698 -4.8408,4.90502 -2.97715,5.9905 1.53026,0.8913 2.20805,0.67093 3.07137,-0.99855 z m -12.60462,-2.98657 c 0.69378,-0.73848 1.06999,-1.34271 0.83604,-1.34271 -0.75315,0 13.16179,-13.46648 14.40227,-13.93811 0.65842,-0.25033 1.849539,-0.33044 2.646924,-0.178 0.797393,0.15243 1.4498,0.0355 1.4498,-0.25991 0,-0.29538 0.486611,-0.66431 1.081352,-0.81984 2.040022,-0.53347 3.600064,-6.50457 1.872613,-7.16745 -0.443093,-0.17004 -0.805625,-0.63962 -0.805625,-1.04353 0,-0.92104 -2.7394,-2.3732 -4.476885,-2.3732 -1.166769,0 -5.527249,1.53856 -4.506899,1.59023 0.22836,0.0116 0.0347,0.60167 -0.43027,1.31136 -0.51338,0.78352 -0.79731,2.22064 -0.72287,3.65881 0.15686,3.03025 -1.82572,6.03828 -6.87737,10.43453 -1.98809,1.73015 -4.31535,3.93121 -5.1717,4.89125 -0.85635,0.96004 -1.79091,1.74553 -2.07681,1.74553 -0.80857,0 -2.05433,1.44234 -2.05433,2.37851 0,0.4642 0.24168,0.84399 0.53708,0.84399 0.2954,0 0.50846,0.18127 0.47348,0.40282 -0.27116,1.71738 2.164,1.63186 3.8232,-0.13428 z m 64.2882526,1.00182 c -0.187492,-0.1875 0.678558,-1.01881 1.924555,-1.84737 1.890868,-1.25738 10.821368,-9.78101 13.141408,-12.54269 0.89067,-1.06022 0.84658,-1.96656 -0.16596,-3.41217 -0.81351,-1.16145 -0.6442,-1.38997 5.9533904,-8.0356 3.73489,-3.76209 7.18489,-7.507455 7.66667,-8.323045 0.48178,-0.81559 1.05052,-1.48289 1.26387,-1.48289 0.84459,0 0.73626,-9.06669 -0.14005,-11.72194 -1.99989,-6.0597 -10.19954,-11.372684 -17.5517304,-11.372684 -2.60204001,0 -8.02238,1.311426 -8.907496,2.155124 -0.257543,0.245496 -0.861761,0.321601 -1.34271,0.169119 -0.741328,-0.23503 -0.7541,-0.192159 -0.08388,0.281619 0.67246,0.475364 0.634114,0.618898 -0.256664,0.960721 -0.57598,0.221025 -3.5586506,2.953011 -6.6281616,6.071091 -3.069513,3.11808 -5.806797,5.60449 -6.082853,5.52537 -0.276055,-0.0791 -0.868293,0.22251 -1.316077,0.67029 -0.60647,0.60647 -1.075515,0.67427 -1.838756,0.2658 -1.375595,-0.7362 -4.505063,0.57557 -5.369081,2.25053 -1.004123,1.94658 -7.954925,8.616205 -8.578077,8.23107 -0.305639,-0.18889 -0.506169,-0.14421 -0.445625,0.0993 0.06054,0.243505 -0.328604,1.323565 -0.864769,2.400135 -1.670595,3.3544 -1.007388,4.34726 9.009284,13.48732 2.344894,2.13968 5.660557,5.21961 7.368143,6.84429 1.707589,1.62468 4.444103,4.04156 6.081155,5.37084 1.637048,1.32929 2.988185,2.83983 3.002531,3.35678 0.02056,0.74058 0.500634,0.9399 2.263928,0.9399 1.2308146,0 2.0844486,-0.15341 1.8969516,-0.3409 z M 26.314451,118.52667 c 1.81628,-1.0729 2.67979,-2.79167 2.67979,-5.33402 0,-2.57632 1.05312,-4.39876 4.11348,-7.11845 2.16477,-1.92379 2.87754,-2.26686 4.25742,-2.04915 1.8455,0.29118 2.3663,0.046 3.23305,-1.52215 0.52468,-0.94928 1.3645,-1.11709 7.22317,-1.44338 3.64621,-0.20307 7.1366,-0.64064 7.75644,-0.97237 1.32779,-0.710615 2.64414,-2.640385 2.14302,-3.141665 -0.19271,-0.19278 -3.8952,-0.37035 -8.22775,-0.39459 l -7.87735,-0.0441 -0.27382,-1.56718 c -0.1506,-0.86194 -0.45271,-1.50675 -0.67135,-1.4329 -0.21865,0.0739 -0.69965,0.13057 -1.0689,0.12605 -0.50268,-0.006 -0.49136,-0.12232 0.045,-0.46235 0.57146,-0.36225 0.53542,-0.52356 -0.1782,-0.7974 -1.72718,-0.66278 -5.12447,-0.37624 -5.44509,0.45926 -0.16938,0.4414 -0.5406,0.65877 -0.82492,0.48304 -0.28432,-0.17572 -0.64972,0.1882 -0.81199,0.80871 -0.16227,0.62052 -0.50853,1.12821 -0.76947,1.12821 -0.26095,0 -0.43608,0.18127 -0.38918,0.40282 0.0469,0.22154 -0.114,0.86276 -0.35755,1.42492 -0.25124,0.57991 -0.18945,1.97138 0.14281,3.216235 0.58509,2.19204 0.0628,3.90351 -0.99224,3.25146 -0.25461,-0.15736 -1.29676,0.57251 -2.31589,1.62193 -1.42097,1.46321 -2.44549,1.98926 -4.39457,2.25641 -3.11129,0.42645 -4.16284,1.41247 -4.98394,4.67336 -0.72569,2.88198 -0.30652,4.1686 1.99075,6.11056 1.69389,1.4319 3.91116,1.549 5.99724,0.31672 z m 9.46751,-46.216286 c 21.01934,-20.812461 30.65888,-29.84373 33.34717,-31.242889 0.99684,-0.518821 1.17874,-1.025839 1.09102,-3.041192 -0.10127,-2.326902 0.0366,-2.560187 3.63749,-6.155512 2.0585,-2.055321 4.16569,-3.877933 4.68263,-4.05025 0.51694,-0.172313 0.9399,-0.614532 0.9399,-0.982703 0,-0.368173 1.94117,-2.466657 4.31372,-4.663294 4.02183,-3.723661 10.50864,-10.123919 21.070109,-20.7890097 2.41946,-2.443195 5.37147,-5.101083 6.56002,-5.906417 1.18856,-0.805334 2.31525,-1.677154 2.50377,-1.937377 0.18852,-0.260222 0.64811,-0.284421 1.0213,-0.05377 0.3732,0.230648 2.25759,0.368239 4.18753,0.305761 3.04465,-0.09857 3.75097,-0.326056 5.33756,-1.719095 1.44457,-1.268351 1.98639,-1.474507 2.58015,-0.981723 0.93983,0.779986 0.49553,1.576232 -0.87952,1.576232 -1.2521,0 -1.31009,0.346189 -0.23765,1.418631 0.44265,0.442651 0.94622,1.452561 1.11903,2.244245 0.56842,2.604011 0.71327,2.78213602 2.26235,2.78213602 1.8525,0 3.61506,-1.75862302 4.10971,-4.10054202 0.29866,-1.413976 0.12428,-1.86563 -1.08861,-2.819693 -0.79433,-0.624817 -1.7474,-1.13603 -2.11793,-1.13603 -0.37053,0 -1.21065,-0.434802 -1.86693,-0.966227 l -1.19324,-0.9662283 1.99147,-1.74854 c 2.97276,-2.610114 3.48261,-2.324499 5.85191,3.2781813 1.01148,2.391828 2.23762,2.591425 4.28173,0.697001 2.6079,-2.4169183 1.58532,-5.8116063 -2.35634,-7.8224963 -2.22326,-1.134221 -2.40384,-2.339071 -0.42801,-2.855762 0.60008,-0.156924 0.94195,-0.526572 0.75971,-0.82144 -0.18223,-0.294867 -0.0857,-0.68793 0.21451,-0.873474 0.30022,-0.185542 0.54585,-0.06714 0.54585,0.263128 0,0.330264 0.24169,0.451108 0.53708,0.268542 0.29952,-0.185114 0.53709,0.22313 0.53709,0.922968 0,1.551516 1.40482,3.64225 2.44733,3.64225 0.42635,0 0.77517,0.362532 0.77517,0.805626 0,1.094339 1.00244,1.009082 3.08822,-0.262655 1.59314,-0.97135 1.74554,-1.29776 1.74554,-3.738687 0,-2.218075 -0.20619,-2.788066 -1.20843,-3.340446 -0.66466,-0.366315 -1.59441,-0.607582 -2.06613,-0.53615 -0.47172,0.07143 -1.16548,-0.24101 -1.54169,-0.694315 -0.5693,-0.685966 -0.44211,-1.141351 0.75841,-2.715314 0.79334,-1.040118 1.65616,-1.759035 1.91736,-1.597594 0.26122,0.161441 0.63378,-0.553069 0.82788,-1.5878 0.3696,-1.97006 0.14769,-2.464239 -3.25262,-7.243649 -3.07822,-4.326691 -6.37112,-7.825349 -7.74685,-8.230913 -0.76096,-0.224335 -5.17476,-0.563702 -9.80843,-0.754148 l -8.42486,-0.346265 -3.13506,2.715953 c -2.97802,2.579899 -3.25722,2.702186 -5.57347,2.44111 -2.17575,-0.245238 -2.53566,-0.126421 -3.34123,1.103032 -0.52457,0.800599 -0.86714,2.28834 -0.81766,3.551023 0.0468,1.195231 -0.0529,2.311177 -0.22158,2.47988 -0.16871,0.168703 -1.08776,-0.09715 -2.04235,-0.590787 -2.199769,-1.137548 -4.097679,-0.415067 -4.570719,1.739946 -0.65792,2.997248 -0.65357,2.993515 -3.06713,2.629008 -1.36499,-0.206147 -1.98736,-0.155557 -1.55728,0.126585 0.57843,0.379462 0.55257,0.532826 -0.13427,0.796394 -1.21553,0.466439 -1.05046,2.63577 0.28774,3.781576 1.60787,1.376697 1.15162,5.07212 -0.9578,7.757679 -0.85513,1.088699 -1.9833,2.654883 -2.50704,3.480408 -0.52374,0.825525 -1.50799,1.712247 -2.18723,1.970493 -0.67924,0.258247 -2.01195,1.450543 -2.96158,2.6495483 -0.94963,1.199005 -1.91289,2.124943 -2.14059,2.057639 -0.2277,-0.0673 -1.63101,1.086071 -3.11848,2.563053 -2.93025,2.909597 -8.5385,8.207653 -17.62442,16.6496147 -3.17929,2.953965 -6.61678,6.262367 -7.63885,7.352004 -1.02207,1.089637 -2.92865,2.484274 -4.23683,3.099192 -1.30818,0.614919 -2.59299,1.656901 -2.85514,2.315512 -0.46337,1.164188 -7.54472,8.27735 -7.54472,7.578625 0,-0.192244 -0.50272,0.289586 -1.11717,1.070726 -0.61445,0.78114 -1.34122,1.281795 -1.61505,1.11256 -0.27383,-0.169235 -0.66027,0.115522 -0.85878,0.632799 -0.19849,0.517276 -1.10311,1.594339 -2.01027,2.393479 -0.90715,0.799134 -4.42878,4.168452 -7.82584,7.487369 -10.25766,10.02171 -11.02637,10.730108 -11.64357,10.730108 -0.32694,0 -0.73944,0.377849 -0.91665,0.839669 -0.17722,0.461817 -0.54093,0.704493 -0.80826,0.539274 -0.44278,-0.273648 -1.86496,1.055893 -6.4244704,6.005967 l -1.60779,1.745525 h 2.0631 c 1.13469,0 2.38497,0.12297 2.77837,0.273275 0.81334,0.310729 2.6968504,-1.339903 12.5311404,-10.981748 3.84016,-3.765005 9.88236,-9.464093 13.42711,-12.664633 3.54476,-3.20054 8.04189,-7.468299 9.99364,-9.483902 2.55758,-2.641257 3.90753,-3.64733 4.83376,-3.60243 0.91036,0.04413 1.01104,0.133935 0.34523,0.307928 -0.51694,0.135088 -0.9701,0.469582 -1.00703,0.74332 -0.0369,0.273741 -0.0973,0.733404 -0.13427,1.021474 -0.0844,0.658784 -3.46213,3.772906 -4.09222,3.772906 -0.25726,0 -0.61148,0.452874 -0.78716,1.006393 -0.40183,1.266066 -6.05787,6.225469 -7.69114,6.743848 -0.67136,0.213082 -1.15385,0.690388 -1.07219,1.060678 0.13295,0.602887 -10.28559,10.961584 -19.42329,19.311733 l -3.44516,3.148227 1.28452,0.968912 c 1.24773,0.94116 1.32874,0.935601 2.82895,-0.194265 0.84943,-0.639747 1.94789,-1.404861 2.44101,-1.700257 0.49312,-0.295397 2.94877,-2.685971 5.457,-5.312384 5.32265,-5.573437 17.92122,-16.976619 18.75628,-16.976619 0.31568,0 0.57396,-0.329459 0.57396,-0.732131 0,-0.402675 1.15783,-1.79238 2.57295,-3.088235 5.76903,-5.282838 7.72875,-6.921323 8.27829,-6.921323 0.31771,0 0.85807,-0.383487 1.2008,-0.852191 0.5445,-0.744652 0.70671,-0.668767 1.28542,0.601368 0.57433,1.260505 0.5511,1.410894 -0.17483,1.132325 -0.85459,-0.327933 -9.38404,6.935348 -12.36313,10.527853 -0.79779,0.962067 -3.082,3.199341 -5.07602,4.971719 -7.58551,6.742372 -20.96644,19.841247 -20.96644,20.524488 0,0.392356 0.60482,0.988949 1.34405,1.325766 1.24711,0.568225 1.62479,0.346425 5.23657,-3.075212 2.14089,-2.028185 6.06771,-5.711854 8.72628,-8.185928 2.65857,-2.474079 5.07545,-4.756539 5.37085,-5.072128 3.46007,-3.69664 11.17903,-11.025447 14.96109,-14.204884 4.47544,-3.762341 5.87441,-4.537316 4.82599,-2.673414 -0.43877,0.780064 -24.37156,24.203983 -30.27907,29.63527 -1.61432,1.484186 -3.49458,3.377113 -4.17836,4.206515 -0.83713,1.015397 -1.53861,1.394659 -2.14744,1.161026 -0.52739,-0.202377 -0.2472,0.338773 0.67238,1.298607 0.8671,0.905063 1.73274,1.645573 1.92364,1.645573 0.1909,0 1.89792,-1.512006 3.79338,-3.360017 1.89546,-1.848012 4.17135,-3.97536 5.05754,-4.727448 0.88619,-0.752086 7.7743,-7.333599 15.30691,-14.625577 7.53261,-7.291977 14.10434,-13.261173 14.60385,-13.264877 0.49951,-0.0037 1.07352,-0.274225 1.27557,-0.60116 0.2561,-0.414377 0.50723,-0.373708 0.82911,0.134271 0.72746,1.148088 0.56148,2.218298 -0.29318,1.890339 -0.87397,-0.335378 -2.0905,0.538705 -5.95807,4.2809 -11.59661,11.220688 -14.99663,14.615565 -15.89225,15.868229 -0.56572,0.791255 -3.38088,3.449823 -6.25589,5.907929 -2.87502,2.458101 -5.31825,4.681689 -5.4294,4.941306 -0.11116,0.259609 -1.39759,1.792126 -2.85876,3.405592 -2.54893,2.814627 -2.61902,2.975152 -1.72859,3.959069 0.91026,1.00582 0.9614,1.00008 2.66438,-0.29885 0.95497,-0.728387 3.63644,-3.205771 5.95883,-5.505291 z M -11.342756,69.27582 c 1.222811,-1.584997 3.6974876,-4.164023 5.4992716,-5.731164 1.801785,-1.567148 3.972635,-3.811071 4.824115,-4.986496 1.42460999,-1.966632 1.54812999,-2.511129 1.54812999,-6.824554 0,-3.704997 0.18615,-4.841907 0.88817001,-5.424538 0.4885,-0.40541 1.02483,-0.657383 1.19184,-0.559943 0.16702,0.09745 0.64913,-0.770307 1.07136,-1.928346 1.3538,-3.712988 -0.19493,-6.562474 -4.14487001,-7.626078 -2.11970999,-0.57078 -5.08895499,-0.0082 -4.78408599,0.906373 0.07601,0.228036 -0.405596,0.958411 -1.070237,1.623054 -0.813763,0.813764 -1.20844,1.851613 -1.20844,3.177749 0,1.083117 0.147725,1.821588 0.328277,1.641036 0.180551,-0.180551 0.963525,0.426675 1.739945,1.349396 1.179991,1.402345 1.443951,2.316994 1.608391,5.573279 0.19282,3.818509 0.15142,3.964493 -2.092182,7.377009 -1.258887,1.914776 -2.855452,3.784624 -3.547914,4.155218 -0.6924646,0.370594 -1.2590226,0.995503 -1.2590226,1.388679 0,0.393178 -0.199823,0.714872 -0.444044,0.714872 -1.06439,0 -5.463884,4.680368 -5.463884,5.812708 0,1.037545 1.274942,2.060281 2.754378,2.209512 0.185627,0.01873 1.337985,-1.262772 2.560802,-2.847766 z M 133.18861,6.3964913 c 0,-0.130263 -0.24169,-0.386218 -0.53709,-0.568783 -0.29539,-0.182565 -0.53708,-0.07599 -0.53708,0.236844 0,0.31283 0.24169,0.568783 0.53708,0.568783 0.2954,0 0.53709,-0.106579 0.53709,-0.236844 z"
         id="path1" /><path
         style="fill:#00ff00;stroke-width:0.537086"
         d="m -1.1664494,108.30987 c -1.2831,-1.1526 -3.13695,-2.74942 -4.119651,-3.54849 -0.982705,-0.79907 -1.617752,-1.45285 -1.411221,-1.45285 0.206534,0 0.07685,-0.35987 -0.28819,-0.79971 -0.365035,-0.43984 -0.85268,-0.68292 -1.083654,-0.54017 -0.23097,0.14275 -0.571806,-0.13619 -0.757412,-0.61987 -0.185605,-0.48368 -0.482055,-0.73483 -0.658775,-0.5581 -0.176723,0.17672 -1.0111076,-0.33249 -1.8541896,-1.131575 -0.843081,-0.79909 -2.495494,-2.17795 -3.672027,-3.06414 -1.176536,-0.88618 -2.275255,-1.99956 -2.441604,-2.47416 -0.398584,-1.13719 11.8001986,-13.46582 14.9176936,-15.07647 6.88378,-3.556517 17.3804904,0.70088 19.4727604,7.89803 0.93648,3.22139 0.63935,5.27935 -1.03783,7.18806 -0.62587,0.71227 -0.80449,1.10158 -0.39692,0.86514 0.49829,-0.28908 0.66323,-0.1965 0.50352,0.28264 -0.41611,1.24832 -1.3081,1.11972 -1.94612,-0.28058 -0.33996,-0.74614 -0.42029,-1.35662 -0.17851,-1.35662 0.24178,0 0.74568,-0.9274 1.11976,-2.06089 0.62214,-1.88509 0.55957,-2.31578 -0.7335,-5.04911 -2.99022,-6.3208 -9.5698604,-8.47459 -16.0311604,-5.24766 -1.30117,0.64983 -4.846736,3.59578 -7.879036,6.54654 l -5.5132756,5.36502 1.262994,0.89441 c 0.694648,0.49192 1.412586,0.8944 1.595421,0.8944 0.702533,0 4.0093186,-2.82706 7.1416276,-6.10557 3.642019,-3.81202 5.64592899,-4.90466 8.995169,-4.90466 4.00763,0 7.9681104,3.99395 7.9681104,8.03544 0,0.56738 0.24563,1.18341 0.54585,1.36895 0.30022,0.18555 0.4068,0.56234 0.23685,0.83733 -0.16995,0.27498 -0.0809,0.49997 0.19801,0.49997 0.27885,0 0.91475,0.62229 1.4131,1.38287 0.86965,1.32726 0.86133,1.39458 -0.20677,1.6739 -0.61208,0.16006 -1.14617,0.56494 -1.18687,0.89973 -0.0407,0.3348 -2.67662,3.111875 -5.8576104,6.171275 l -5.78361,5.56256 z"
         id="path2" /><path
         style="fill:#00ff00;stroke-width:0.537086"
         d="m 59.285801,28.862033 c -0.32493,-0.134223 2.0992,-2.834132 5.38696,-5.999797 5.90646,-5.687118 8.61737,-8.266126 26.37411,-25.0907927 4.98818,-4.726343 9.832389,-9.3788373 10.764899,-10.3388753 0.93252,-0.960038 1.83723,-1.745524 2.01047,-1.745524 0.17324,0 0.9192,-0.60422 1.65769,-1.342711 0.7385,-0.738491 1.59539,-1.342711 1.90421,-1.342711 1.33941,0 0.27762,1.457053 -3.85955,5.296296 -2.43158,2.2564753 -5.648819,5.3111213 -7.149429,6.7881033 -1.5006,1.476982 -4.647,4.48659402 -6.99199,6.688027 -4.86144,4.563832 -18.4128,17.5898907 -24.41111,23.4648447 -3.90214,3.821892 -4.41462,4.148428 -5.68626,3.62314 z"
         id="path4" /><path
         style="fill:#00ff00;stroke-width:0.537086"
         d="m 64.698321,32.393925 c -0.18918,-0.306102 0.591,-1.454119 1.73375,-2.551153 1.14274,-1.097031 6.36031,-6.1033 11.59459,-11.125038 C 83.260951,13.695995 91.491301,5.7202923 96.316321,0.99394932 108.77764,-11.212506 111.00905,-13.238787 111.98987,-13.238787 c 1.54632,0 0.61468,1.254117 -4.58131,6.1671023 -2.80627,2.653415 -11.223579,10.749963 -18.705129,17.9923257 -7.48155,7.242365 -13.96459,13.298217 -14.40675,13.457448 -0.44216,0.159232 -0.82626,0.521764 -0.85355,0.805627 -0.0519,0.539676 -7.59575,7.766754 -8.10719,7.766754 -0.16151,0 -0.44844,-0.250446 -0.63762,-0.556545 z"
         id="path5" /><path
         style="fill:#00ff00;stroke-width:0.537086"
         d="m -104.4809,103.75915 c 0.78569,-0.93374 2.64061,-2.78747 4.12203,-4.119405 2.097754,-1.88606 2.795274,-2.25704 3.153604,-1.67727 0.35522,0.57477 0.57612,0.44256 0.96923,-0.58008 0.51192,-1.33172 3.322931,-3.74139 4.364541,-3.74139 0.30735,0 0.55883,-0.24169 0.55883,-0.53708 0,-0.2954 0.66464,-0.55617 1.47698,-0.57949 0.81234,-0.0233 1.14527,-0.17417 0.73985,-0.33523 -0.97207,-0.38615 7.58432,-4.45613 9.3682,-4.45613 0.908,0 1.23773,-0.2114 0.98004,-0.62835 -0.26112,-0.4225 -0.0956,-0.516 0.50539,-0.2854 0.49155,0.18863 0.89373,0.10425 0.89373,-0.18751 0,-0.29175 0.56948,-0.38753 1.2655,-0.21283 0.80329,0.20161 1.5835,-2.7e-4 2.13615,-0.55303 0.47886,-0.47886 2.14499,-1.08878 3.70253,-1.3554 1.55754,-0.26661 3.6042,-0.71756 4.54815,-1.00211 0.94395,-0.28455 3.36083,-0.68183 5.37085,-0.88283 4.401105,-0.44013 10.409078,-1.72215 12.849923,-2.742 0.979207,-0.40914 1.887601,-0.74389 2.018649,-0.74389 0.348464,0 0.103984,1.23153 -0.406929,2.0498 -0.242814,0.3889 -0.306084,0.8425 -0.140587,1.00799 0.165497,0.1655 -0.05819,0.99533 -0.497094,1.84406 l -0.797999,1.54317 h -6.357982 c -5.978481,0 -6.434481,0.0763 -7.639661,1.27777 -0.79362,0.79121 -1.79297,1.22635 -2.62439,1.14271 -0.73849,-0.0743 -2.18862,-0.19772 -3.22251,-0.27431 l -1.87979,-0.13924 1.87979,-0.39568 1.8798,-0.39568 -2.00998,-0.0707 c -2.27633,-0.0801 -4.82285,1.67896 -4.3216,2.98518 0.18209,0.47453 0.007,0.74324 -0.44332,0.68036 -0.40935,-0.0572 -2.79863,-0.039 -5.3095,0.0404 -3.97384,0.12561 -4.25214,0.19298 -2.14834,0.52005 l 2.41689,0.37575 -2.17361,0.0807 c -1.78716,0.0663 -2.55108,0.47144 -4.29668,2.27856 -1.16769,1.20884 -3.15521,2.91569 -4.41673,3.793 -1.26151,0.87731 -2.16633,1.80112 -2.01072,2.05291 0.44034,0.712475 -0.45729,0.831905 -4.81904,0.641205 -2.890641,-0.12638 -3.946401,-0.356415 -3.697531,-0.805625 0.19158,-0.34581 -1.20221,0.881815 -3.097334,2.728045 -3.65832,3.56395 -5.27173,4.49038 -2.88933,1.65906 z"
         id="path6" /><path
         style="fill:#00ff00;stroke-width:0.537086"
         d="m -54.699825,96.969715 c -1.303097,-0.13164 -1.707351,-0.39267 -1.48907,-0.9615 0.234212,-0.61035 0.08572,-0.66633 -0.68018,-0.25644 -0.67207,0.35968 -1.17854,0.32564 -1.61257,-0.10839 -0.48563,-0.48564 -0.87773,-0.47979 -1.68624,0.0251 -2.4978,1.5599 -2.9265,-1.8e-4 -0.66524,-2.42086 0.81234,-0.86962 1.4719,-1.92235 1.4657,-2.33941 -0.006,-0.41706 0.35633,-0.92257 0.80562,-1.12336 1.28826,-0.5757 4.412876,-0.50775 4.044706,0.088 -0.206655,0.33438 1.261449,0.47393 3.996433,0.37988 2.829944,-0.0973 4.323088,0.0517 4.323088,0.43156 0,0.57299 -4.346392,4.95057 -5.907929,5.95032 -0.443095,0.28368 -1.610537,0.43447 -2.594318,0.33509 z"
         id="path7" /></g></g></svg>
